<svg id="Layer_1" data-name="Layer 1" xmlns="http://www.w3.org/2000/svg" viewBox="0 0 572.04 572.04"><defs><style>.cls-1,.cls-3{fill:none;}.cls-1{stroke:#383838;stroke-width:28px;}.cls-1,.cls-2,.cls-3{stroke-miterlimit:10;}.cls-2{fill:#fff;stroke-width:11.8px;}.cls-2,.cls-3{stroke:#231f20;}.cls-3{stroke-linecap:round;stroke-width:10px;}.cls-4{fill:#231f20;}</style></defs><title>error_image</title><circle class="cls-1" cx="283.03" cy="287" r="250.81"/><path class="cls-2" d="M502.62,271.91c1.59-1.35,4.18-.91,5.79,1l40.2,47.43c1.61,1.9,1.62,4.53,0,5.88L434.74,422.73c-1.59,1.35-4.18.91-5.79-1l-40.2-47.43c-1.61-1.9-1.62-4.53,0-5.88ZM320.78,186.8l-93.18-110c-8.1-9.55-21.88-11.18-30.78-3.63s-9.56,21.4-1.47,31l93.19,110m58.19-62.2L253.55,42c-8.09-9.54-21.88-11.17-30.78-3.63s-9.56,21.41-1.47,31l93.19,110M354.33,161l-92-109.82c-8.09-9.54-7.44-23.41,1.47-30.95s22.68-5.92,30.77,3.62l93.19,110s13.63,16.59,21.37,10S393.87,71.27,435,81.9c0,0,43.65,74.28,36.24,129.29s15.32,70.7,15.32,70.7M402.75,353s-11-21.29-34.54-24.06-34.69.66-80.37-53.23L200.43,172.51c-7.59-8.95-7-22,1.38-29s21.28-5.55,28.87,3.41L279.11,203"/><path class="cls-3" d="M151,408.26s138.73-129.95,273,24.93"/><circle class="cls-3" cx="176.35" cy="215.64" r="40.95"/><circle class="cls-4" cx="163.67" cy="187.38" r="12.68"/></svg>