<svg id="Layer_1" data-name="Layer 1" xmlns="http://www.w3.org/2000/svg" viewBox="0 0 377.49 272.68"><defs><style>.cls-1{fill:#fff;stroke:#1f305f;stroke-miterlimit:10;stroke-width:15px;}</style></defs><title>ikon_tjeneste1</title><path class="cls-1" d="M162.73,202.36c0-35.76-28.19-64.74-63-64.74s-62.95,29-62.95,64.74c0,8.38,1.57,7.32,4.39,14.67H158.34C161.16,209.68,162.73,210.74,162.73,202.36Z"/><path class="cls-1" d="M340.67,202.36c0-35.76-28.18-64.74-62.95-64.74s-63,29-63,64.74c0,8.38,1.56,7.32,4.38,14.67H336.29C339.11,209.68,340.67,210.74,340.67,202.36Z"/><ellipse class="cls-1" cx="99.77" cy="114.88" rx="49.98" ry="51.23"/><ellipse class="cls-1" cx="277.72" cy="114.88" rx="49.98" ry="51.23"/><path class="cls-1" d="M277.72,221.76c0-50.54-39.83-91.51-89-91.51s-89,41-89,91.51c0,11.84,2.22,10.34,6.2,20.73H271.52C275.51,232.1,277.72,233.6,277.72,221.76Z"/><ellipse class="cls-1" cx="188.75" cy="98.12" rx="70.65" ry="72.4"/></svg>