<svg id="Layer_1" data-name="Layer 1" xmlns="http://www.w3.org/2000/svg" viewBox="0 0 202.84 145.52"><defs><style>.cls-1{fill:#00558e;stroke:#fff;stroke-miterlimit:10;stroke-width:2.84px;}</style></defs><title>ikoner_topp</title><path class="cls-1" d="M84.29,117.69c0-23.54-18.55-42.62-41.43-42.62S1.42,94.15,1.42,117.69c0,5.51,1,4.81,2.89,9.65h77.1C83.26,122.5,84.29,123.2,84.29,117.69Z"/><path class="cls-1" d="M201.42,117.69c0-23.54-18.55-42.62-41.44-42.62s-41.43,19.08-41.43,42.62c0,5.51,1,4.81,2.88,9.65h77.1C200.39,122.5,201.42,123.2,201.42,117.69Z"/><ellipse class="cls-1" cx="42.86" cy="60.11" rx="32.9" ry="33.72"/><ellipse class="cls-1" cx="159.98" cy="60.11" rx="32.9" ry="33.72"/><path class="cls-1" d="M160,130.45c0-33.26-26.22-60.23-58.56-60.23s-58.56,27-58.56,60.23c0,7.8,1.45,6.81,4.08,13.65h109C158.53,137.26,160,138.25,160,130.45Z"/><ellipse class="cls-1" cx="101.42" cy="49.08" rx="46.5" ry="47.66"/></svg>