<svg id="Layer_1" data-name="Layer 1" xmlns="http://www.w3.org/2000/svg" viewBox="0 0 325.19 272.68"><defs><style>.cls-1{fill:#1f305f;}</style></defs><title>ikon_tjeneste2</title><path class="cls-1" d="M280.85,144.85V134.1l-27.44-4.57a90.8,90.8,0,0,0-2.13-11.73l24.28-13.72L271.88,94l-27.41,5.1a91.71,91.71,0,0,0-5.9-10.36l18.07-21.14-6.91-8.23-24,14.16a91.33,91.33,0,0,0-9.13-7.63l9.79-26.13-9.31-5.37L199.38,55.87a91.41,91.41,0,0,0-11.22-4.08L188.42,24l-10.59-1.86L168.54,48.4c-2-.13-3.94-.3-5.95-.3s-4,.17-5.94.3l-9.3-26.31L136.76,24,137,51.79a91.41,91.41,0,0,0-11.22,4.08L108.12,34.38l-9.31,5.37,9.79,26.13a90.21,90.21,0,0,0-9.13,7.63l-24-14.16-6.91,8.23L86.62,88.71a91.19,91.19,0,0,0-5.9,10.37L53.31,94l-3.68,10.1L73.91,117.8a89.12,89.12,0,0,0-2.13,11.73L44.34,134.1v10.75l27.44,4.58a89.12,89.12,0,0,0,2.13,11.73L49.63,174.87,53.31,185l27.41-5.1a90.2,90.2,0,0,0,5.9,10.36L68.55,211.38l6.91,8.23,24-14.16a90.21,90.21,0,0,0,9.13,7.63l-9.79,26.13,9.31,5.37,17.69-21.49A89.75,89.75,0,0,0,137,227.16L136.76,255l10.59,1.86,9.3-26.31c2,.13,3.94.3,5.94.3s4-.17,5.95-.3l9.29,26.31L188.42,255l-.26-27.85a89.75,89.75,0,0,0,11.22-4.07l17.69,21.49,9.31-5.37-9.79-26.13a91.33,91.33,0,0,0,9.13-7.63l24,14.16,6.91-8.23-18.07-21.14a91.71,91.71,0,0,0,5.9-10.36l27.41,5.1,3.68-10.11-24.28-13.71a90.8,90.8,0,0,0,2.13-11.73ZM170.33,64.62h0c2,.2,3.88.54,5.79.88,1.61.32,3.2.67,4.78,1.06h0a74.44,74.44,0,0,1,14.52,5.29c1.52.73,3,1.51,4.47,2.33,1.08.62,2.14,1.27,3.19,1.94.56.35,1.14.67,1.69,1h0A75.75,75.75,0,0,1,223.49,95.4h0a74.33,74.33,0,0,1,7.76,13.37h0c.62,1.39,1.18,2.81,1.72,4.24.17.46.34.92.5,1.38.52,1.48,1,3,1.45,4.48a75.83,75.83,0,0,1,2.66,15.23h-69L130.71,71.39a74.9,74.9,0,0,1,13.57-4.83h0c1.58-.39,3.17-.74,4.78-1.06,1.91-.34,3.83-.68,5.79-.88h0a75.08,75.08,0,0,1,15.48,0Zm-50.2,137a75.18,75.18,0,0,1-18.44-18h0a74.63,74.63,0,0,1-7.75-13.37c-.63-1.39-1.19-2.81-1.72-4.25-.17-.45-.34-.91-.5-1.37-.53-1.48-1-3-1.45-4.48a74,74,0,0,1,0-41.22c.43-1.52.92-3,1.45-4.49.16-.45.33-.91.5-1.36.53-1.43,1.09-2.86,1.72-4.25h0a74.29,74.29,0,0,1,7.75-13.37h0a74.55,74.55,0,0,1,6.89-8.25,75.39,75.39,0,0,1,11.83-10h0c.29-.2.6-.36.89-.55l35.92,59.49v.77Zm34.72,12.75h0c-2-.2-3.88-.54-5.79-.89-1.61-.31-3.2-.66-4.78-1h0a74.53,74.53,0,0,1-14.53-5.29l-.3-.16L165,144.85h72.55a75.8,75.8,0,0,1-2.66,15.24c-.43,1.51-.93,3-1.45,4.48-.16.46-.33.92-.5,1.38-.54,1.43-1.1,2.85-1.72,4.24a74.68,74.68,0,0,1-7.76,13.37h0a75.28,75.28,0,0,1-18.71,18.24h0c-.55.37-1.13.69-1.69,1-1.05.67-2.11,1.32-3.19,1.94-1.47.82-3,1.59-4.47,2.33a74.44,74.44,0,0,1-14.52,5.29c-1.58.39-3.17.74-4.78,1-1.91.35-3.83.69-5.79.89h0a77,77,0,0,1-15.48,0Z"/></svg>