<svg id="Layer_1" data-name="Layer 1" xmlns="http://www.w3.org/2000/svg" viewBox="0 0 172.44 171.18"><defs><style>.cls-1{fill:#00558e;}</style></defs><title>ikoner_topp</title><path class="cls-1" d="M172.44,89.51V81.67l-20-3.33a67.23,67.23,0,0,0-1.55-8.56l17.7-10-2.68-7.36-20,3.72a66.08,66.08,0,0,0-4.3-7.56l13.18-15.41-5-6L132.24,37.49a68,68,0,0,0-6.65-5.56l7.13-19L125.93,9,113,24.63a65.3,65.3,0,0,0-8.18-3l.19-20.3L97.33,0,90.55,19.18c-1.44-.09-2.87-.21-4.33-.21s-2.89.12-4.33.21L75.11,0,67.39,1.36l.19,20.3a65.3,65.3,0,0,0-8.18,3L46.5,9l-6.78,3.92,7.13,19a67,67,0,0,0-6.66,5.56L22.69,27.17l-5,6L30.83,48.58a66.08,66.08,0,0,0-4.3,7.56l-20-3.72L3.86,59.78l17.7,10A65.51,65.51,0,0,0,20,78.34L0,81.67v7.84l20,3.33a65.51,65.51,0,0,0,1.55,8.56l-17.7,10,2.68,7.36,20-3.72a66.08,66.08,0,0,0,4.3,7.56L17.65,138l5,6,17.5-10.32a67,67,0,0,0,6.66,5.56L39.72,158.3l6.78,3.92,12.9-15.67a66.92,66.92,0,0,0,8.18,3l-.19,20.3,7.72,1.36L81.89,152c1.44.1,2.87.22,4.33.22s2.89-.12,4.33-.22l6.78,19.19,7.72-1.36-.19-20.3a66.92,66.92,0,0,0,8.18-3l12.89,15.67,6.79-3.92-7.13-19.05a68,68,0,0,0,6.65-5.56L149.75,144l5-6L141.61,122.6a66.08,66.08,0,0,0,4.3-7.56l20,3.72,2.68-7.36-17.7-10a67.23,67.23,0,0,0,1.55-8.56ZM91.86,31h0c1.43.15,2.83.39,4.23.65,1.17.22,2.33.48,3.48.77h0a53.93,53.93,0,0,1,10.59,3.85c1.11.54,2.19,1.11,3.26,1.7.79.45,1.56.93,2.33,1.42.4.25.83.48,1.23.75h0a55.36,55.36,0,0,1,13.64,13.3h0a54.6,54.6,0,0,1,5.66,9.75h0c.45,1,.86,2,1.25,3.09.12.34.25.67.37,1,.37,1.07.74,2.16,1,3.27a54.16,54.16,0,0,1,1.94,11.1H90.58L63,35.94a54.86,54.86,0,0,1,9.9-3.51h0c1.15-.29,2.31-.55,3.48-.77,1.4-.26,2.79-.5,4.22-.65h0a55.09,55.09,0,0,1,11.29,0Zm-36.6,99.86a55.24,55.24,0,0,1-8.42-7.13,54.37,54.37,0,0,1-5-6h0A55,55,0,0,1,36.16,108c-.45-1-.86-2-1.25-3.1-.13-.33-.25-.66-.37-1-.38-1.07-.74-2.16-1-3.27a53.78,53.78,0,0,1,0-30c.31-1.11.67-2.2,1-3.28.12-.33.24-.66.37-1,.39-1,.8-2.09,1.25-3.1h0a54.6,54.6,0,0,1,5.66-9.75h0a53.46,53.46,0,0,1,5-6,55.16,55.16,0,0,1,8.62-7.29h0c.21-.14.44-.26.65-.4L82.3,83.13v.56Zm25.31,9.3h0c-1.43-.15-2.82-.39-4.22-.65-1.17-.23-2.33-.48-3.48-.77h0a54.92,54.92,0,0,1-10.6-3.85l-.22-.12L88,89.51h52.89a54.16,54.16,0,0,1-1.94,11.1c-.31,1.11-.67,2.19-1,3.27-.12.34-.25.67-.37,1-.39,1-.8,2.08-1.25,3.09a55,55,0,0,1-5.66,9.75h0A55.13,55.13,0,0,1,117,131h0c-.4.27-.83.51-1.23.76-.77.49-1.54,1-2.33,1.42-1.07.59-2.15,1.16-3.26,1.7a54.58,54.58,0,0,1-10.59,3.85c-1.15.29-2.31.54-3.48.77-1.4.26-2.8.5-4.23.65h0a55.09,55.09,0,0,1-11.29,0Z"/></svg>