<svg xmlns="http://www.w3.org/2000/svg" viewBox="0 0 164.58 180.73"><defs><style>.cls-1{isolation:isolate;}.cls-2{opacity:0.1;mix-blend-mode:multiply;}.cls-3{fill:#13110c;}.cls-4{fill:#00558e;}</style></defs><title>ikoner_topp</title><g class="cls-1"><g id="Layer_1" data-name="Layer 1"><g class="cls-2"><path class="cls-3" d="M150.76,77.39a40.3,40.3,0,0,1-7.84-24c0-14.47,6.1-25.75,17.36-32.66l-18.62-18a2.16,2.16,0,0,0-2.94,0c-6.75,5.9-16.6,7.41-28.28,7.41-11.3,0-21.39-3.6-28.15-9.26-6.75,5.66-16.85,9.26-28.14,9.26C42.47,10.09,32.74,8.4,26,2.51a2.16,2.16,0,0,0-2.94,0L4.31,20.73c11.26,6.91,17.36,18.19,17.36,32.66a40.24,40.24,0,0,1-7.85,24h.09a53.24,53.24,0,0,0-9.56,30.13c0,40.6,68.2,67.12,77.94,67.12,12.63,0,78-28.32,78-67.12a53.24,53.24,0,0,0-9.56-30.13Zm-42.48,45.29-26-13-26,13L58.48,90.2,36.82,68.55l30.32-4.33L82.29,33.91,97.45,64.22l30.31,4.33L106.11,90.2Z"/></g><path class="cls-4" d="M150.76,80a40.3,40.3,0,0,1-7.84-24c0-14.47,6.1-25.75,17.36-32.67l-18.62-18a2.16,2.16,0,0,0-2.94,0c-6.75,5.89-16.6,7.41-28.28,7.41-11.3,0-21.39-3.61-28.15-9.26-6.75,5.65-16.85,9.26-28.14,9.26C42.47,12.72,32.74,11,26,5.14a2.16,2.16,0,0,0-2.94,0L4.31,23.35C15.57,30.27,21.67,41.55,21.67,56a40.24,40.24,0,0,1-7.85,24h.09a53.21,53.21,0,0,0-9.56,30.13c0,40.6,68.2,67.12,77.94,67.12,12.63,0,78-28.33,78-67.12A53.21,53.21,0,0,0,150.68,80Zm-42.48,45.29-26-13-26,13,2.17-32.48L36.82,71.18l30.32-4.33L82.29,36.53,97.45,66.85l30.31,4.33L106.11,92.83Z"/></g></g></svg>