<svg id="Layer_1" data-name="Layer 1" xmlns="http://www.w3.org/2000/svg" viewBox="0 0 360 272.68"><defs><style>.cls-1{fill:#1f305f;}.cls-2{fill:#fff;}</style></defs><title>Ikon_tjeneste3</title><path class="cls-1" d="M277.77,248c-14.24,0-26.66-11.37-29.91-27.21H163.1c-4,0-7.22-3.65-7.22-8.13s3.24-8.13,7.22-8.13h66.59V55.87H55.06V204.49h9c3.25-15.84,15.67-27.21,29.91-27.21s26.66,11.37,29.91,27.21h18.45c4,0,7.21,3.65,7.21,8.13s-3.23,8.13-7.21,8.13H123.93C120.68,236.59,108.26,248,94,248s-26.66-11.37-29.91-27.21H47.85c-4,0-7.22-3.65-7.22-8.13V47.74c0-4.48,3.24-8.13,7.22-8.13H236.9c4,0,7.22,3.65,7.22,8.13V83.79h63.57a7,7,0,0,1,6,3.68l0,.08,26.54,65.74a9,9,0,0,1,1.13,4.37v55c0,4.48-3.24,8.13-7.22,8.13H307.67C304.42,236.59,292,248,277.77,248Zm0-54.42c-9,0-16.3,8.56-16.3,19.08s7.31,19.08,16.3,19.08,16.29-8.56,16.29-19.08S286.75,193.54,277.77,193.54ZM94,193.54c-9,0-16.3,8.56-16.3,19.08S85,231.7,94,231.7s16.29-8.56,16.29-19.08S103,193.54,94,193.54Zm233,11V160l-23.38-59.93H244.12V204.49h3.74c3.25-15.84,15.67-27.21,29.91-27.21s26.66,11.37,29.9,27.21Z"/><path class="cls-1" d="M236.9,41c3.22,0,5.82,3,5.82,6.73V85.19h65a5.65,5.65,0,0,1,4.83,3l26.53,65.73a7.47,7.47,0,0,1,1,3.76v55c0,3.72-2.61,6.74-5.83,6.74h-27.7c-2.71,15.5-14.57,27.2-28.75,27.2s-26-11.7-28.76-27.2H163.1c-3.21,0-5.82-3-5.82-6.74s2.61-6.73,5.82-6.73h68V54.47H53.67V205.89H65.26C68,190.38,79.84,178.67,94,178.67s26,11.71,28.75,27.22h19.61c3.21,0,5.82,3,5.82,6.73s-2.61,6.74-5.82,6.74H122.77c-2.71,15.5-14.57,27.2-28.75,27.2s-26-11.7-28.76-27.2H47.85c-3.21,0-5.82-3-5.82-6.74V47.74C42,44,44.64,41,47.85,41H236.9m5.82,164.88H249c2.71-15.51,14.57-27.22,28.76-27.22s26,11.71,28.75,27.22H328.4V159.71L304.59,98.66H242.72V205.89m35,27.2c9.75,0,17.69-9.18,17.69-20.47s-7.94-20.48-17.69-20.48-17.7,9.19-17.7,20.48,7.93,20.47,17.7,20.47M94,233.09c9.76,0,17.69-9.18,17.69-20.47S103.78,192.14,94,192.14s-17.69,9.19-17.69,20.48S84.26,233.09,94,233.09M236.9,38.22h-189c-4.75,0-8.61,4.27-8.61,9.52V212.62c0,5.25,3.86,9.53,8.61,9.53H63c3.73,15.89,16.46,27.2,31,27.2s27.3-11.31,31-27.2h17.33c4.75,0,8.61-4.28,8.61-9.53s-3.86-9.52-8.61-9.52H125.05c-3.73-15.91-16.46-27.22-31-27.22s-27.3,11.31-31,27.22H56.46V57.26H228.3V203.1H163.1c-4.75,0-8.61,4.27-8.61,9.52s3.86,9.53,8.61,9.53h83.64c3.73,15.89,16.46,27.2,31,27.2s27.29-11.31,31-27.2h25.43c4.75,0,8.62-4.28,8.62-9.53v-55a10.29,10.29,0,0,0-1.27-5L315.1,87.12l-.07-.18-.1-.17a8.39,8.39,0,0,0-7.24-4.37H245.51V47.74c0-5.25-3.86-9.52-8.61-9.52Zm8.61,63.22h57.17l22.93,58.8V203.1H308.8c-3.73-15.91-16.46-27.22-31-27.22s-27.3,11.31-31,27.22h-1.23V101.44ZM277.77,230.3c-8.22,0-14.91-7.93-14.91-17.68s6.69-17.69,14.91-17.69,14.9,7.94,14.9,17.69S286,230.3,277.77,230.3ZM94,230.3c-8.22,0-14.91-7.93-14.91-17.68S85.8,194.93,94,194.93s14.9,7.94,14.9,17.69S102.24,230.3,94,230.3Z"/><path class="cls-1" d="M73.93,117.18c-2.88,0-5.22-2.75-5.22-6.12s2.34-6.14,5.22-6.14H90.81c2.87,0,5.21,2.75,5.21,6.14s-2.34,6.12-5.21,6.12Z"/><path class="cls-2" d="M90.81,105.52c2.54,0,4.6,2.49,4.6,5.54s-2.06,5.52-4.6,5.52H73.93c-2.55,0-4.62-2.48-4.62-5.52s2.07-5.54,4.62-5.54H90.81m0-1.2H73.93c-3.22,0-5.83,3-5.83,6.74s2.61,6.72,5.83,6.72H90.81c3.21,0,5.81-3,5.81-6.72s-2.6-6.74-5.81-6.74Z"/><path class="cls-1" d="M110.71,117.18c-2.87,0-5.21-2.75-5.21-6.12s2.34-6.14,5.21-6.14H210.83c2.87,0,5.21,2.75,5.21,6.14s-2.34,6.12-5.21,6.12Z"/><path class="cls-2" d="M210.83,105.52c2.54,0,4.61,2.49,4.61,5.54s-2.07,5.52-4.61,5.52H110.71c-2.54,0-4.61-2.48-4.61-5.52s2.07-5.54,4.61-5.54H210.83m0-1.2H110.71c-3.22,0-5.82,3-5.82,6.74s2.6,6.72,5.82,6.72H210.83c3.21,0,5.82-3,5.82-6.72s-2.61-6.74-5.82-6.74Z"/><path class="cls-1" d="M194,155.44c-2.87,0-5.22-2.75-5.22-6.13s2.35-6.14,5.22-6.14h16.88c2.87,0,5.21,2.76,5.21,6.14s-2.34,6.13-5.21,6.13Z"/><path class="cls-2" d="M210.83,143.78c2.54,0,4.61,2.48,4.61,5.53s-2.07,5.52-4.61,5.52H194c-2.54,0-4.61-2.48-4.61-5.52s2.07-5.53,4.61-5.53h16.88m0-1.21H194c-3.22,0-5.82,3-5.82,6.74S190.73,156,194,156h16.88c3.21,0,5.82-3,5.82-6.73s-2.61-6.74-5.82-6.74Z"/><path class="cls-1" d="M73.93,155.44c-2.88,0-5.22-2.75-5.22-6.13s2.34-6.14,5.22-6.14H174c2.88,0,5.22,2.76,5.22,6.14s-2.34,6.13-5.22,6.13Z"/><path class="cls-2" d="M174,143.78c2.54,0,4.61,2.48,4.61,5.53s-2.07,5.52-4.61,5.52H73.93c-2.55,0-4.62-2.48-4.62-5.52s2.07-5.53,4.62-5.53H174m0-1.21H73.93c-3.22,0-5.83,3-5.83,6.74S70.71,156,73.93,156H174c3.22,0,5.82-3,5.82-6.73s-2.6-6.74-5.82-6.74Z"/></svg>