<svg id="Layer_1" data-name="Layer 1" xmlns="http://www.w3.org/2000/svg" viewBox="0 0 300 300"><defs><style>.cls-1{fill:#1f325f;}</style></defs><title>tjenester2</title><path class="cls-1" d="M150.8,161.93a3.8,3.8,0,0,0-4.46,3l-3.22,16.88a3.8,3.8,0,0,0,3,4.46l6.52,1.25A45.27,45.27,0,0,0,154.85,198l-5.49,3.74a3.81,3.81,0,0,0-1,5.3L158,221.28a3.81,3.81,0,0,0,5.3,1l5.5-3.74a44.6,44.6,0,0,0,8.94,5.89L176.5,231a3.82,3.82,0,0,0,3,4.47l16.88,3.22a4.39,4.39,0,0,0,.72.07,3.81,3.81,0,0,0,3.74-3.11l1.25-6.51a45.46,45.46,0,0,0,10.48-2.18l3.73,5.49a3.81,3.81,0,0,0,5.31,1l14.21-9.65a3.82,3.82,0,0,0,1-5.31L233.13,213A45.12,45.12,0,0,0,239,204l6.52,1.24a3.82,3.82,0,0,0,4.46-3l3.22-16.87a3.81,3.81,0,0,0-3-4.47l-6.52-1.24a44.73,44.73,0,0,0-2.18-10.48l5.5-3.73a3.83,3.83,0,0,0,1-5.31l-9.66-14.21a3.8,3.8,0,0,0-5.3-1l-5.5,3.73a44.83,44.83,0,0,0-8.94-5.88l1.25-6.52a3.83,3.83,0,0,0-3-4.47l-16.88-3.22a3.84,3.84,0,0,0-4.47,3l-1.24,6.52a44.92,44.92,0,0,0-10.48,2.17L180,134.79a3.81,3.81,0,0,0-5.31-1l-14.21,9.66a3.82,3.82,0,0,0-1,5.3l3.73,5.49a45.57,45.57,0,0,0-5.88,8.94Zm12.27,7a37.75,37.75,0,0,1,7.72-11.74,3.82,3.82,0,0,0,.42-4.8l-3.27-4.81,7.89-5.37,3.27,4.82a3.82,3.82,0,0,0,4.61,1.38,37.72,37.72,0,0,1,13.76-2.86,3.83,3.83,0,0,0,3.69-3.1l1.08-5.71,9.38,1.79-1.09,5.71a3.82,3.82,0,0,0,2.28,4.24,37.63,37.63,0,0,1,11.74,7.72,3.81,3.81,0,0,0,4.8.41l4.81-3.27,5.36,7.89-4.81,3.27a3.83,3.83,0,0,0-1.38,4.62,37.7,37.7,0,0,1,2.85,13.75,3.84,3.84,0,0,0,3.11,3.69l5.7,1.09-1.79,9.37L237.5,196a3.81,3.81,0,0,0-4.24,2.29A37.68,37.68,0,0,1,225.53,210a3.84,3.84,0,0,0-.41,4.8l3.27,4.82L220.5,225l-3.27-4.81a3.81,3.81,0,0,0-4.61-1.39,37.6,37.6,0,0,1-13.76,2.86,3.81,3.81,0,0,0-3.68,3.1l-1.09,5.71-9.37-1.79,1.09-5.71a3.83,3.83,0,0,0-2.29-4.24A37.63,37.63,0,0,1,171.78,211a3.81,3.81,0,0,0-4.8-.41l-4.81,3.27-5.36-7.89,4.81-3.27a3.82,3.82,0,0,0,1.39-4.61,37.82,37.82,0,0,1-2.87-13.76,3.82,3.82,0,0,0-3.1-3.69l-5.7-1.09,1.79-9.37,5.7,1.09A3.82,3.82,0,0,0,163.07,169Z"/><path class="cls-1" d="M193,210.57h0a27.46,27.46,0,1,0-21.82-32.11A27.46,27.46,0,0,0,193,210.57ZM178.7,179.89a19.83,19.83,0,0,1,19.42-16.11,19.86,19.86,0,0,1,19.51,23.54,19.81,19.81,0,0,1-23.18,15.74h0a19.81,19.81,0,0,1-15.75-23.17Z"/><path class="cls-1" d="M49.2,132.62a3.82,3.82,0,0,0,4.33,3.24l6.56-.94a45.46,45.46,0,0,0,5.46,9.2l-4,5.32a3.82,3.82,0,0,0,.76,5.35l13.75,10.29a3.82,3.82,0,0,0,5.35-.76l4-5.32a45,45,0,0,0,10.37,2.66l.94,6.56a3.85,3.85,0,0,0,1.49,2.52,3.91,3.91,0,0,0,2.3.76,3.35,3.35,0,0,0,.54,0l17-2.44a3.82,3.82,0,0,0,3.24-4.32l-.94-6.57a45,45,0,0,0,9.2-5.47l5.32,4a3.81,3.81,0,0,0,5.34-.76l10.3-13.75a3.82,3.82,0,0,0-.76-5.35l-5.32-4a45.56,45.56,0,0,0,2.66-10.37l6.56-.94a3.83,3.83,0,0,0,3.24-4.33l-2.44-17a3.83,3.83,0,0,0-4.33-3.24l-6.56.94a45,45,0,0,0-5.47-9.2l4-5.32a3.8,3.8,0,0,0-.76-5.34L127.56,67.7a3.8,3.8,0,0,0-5.34.76l-4,5.32a45,45,0,0,0-10.36-2.66l-1-6.56a3.82,3.82,0,0,0-4.32-3.24l-17,2.44a3.85,3.85,0,0,0-2.51,1.49,3.79,3.79,0,0,0-.72,2.84l.94,6.56a45,45,0,0,0-9.2,5.47l-5.32-4A3.83,3.83,0,0,0,66,75.41a3.87,3.87,0,0,0-2.52,1.49L53.14,90.66A3.8,3.8,0,0,0,53.9,96l5.32,4a44.91,44.91,0,0,0-2.66,10.37l-6.56,1a3.81,3.81,0,0,0-3.24,4.32ZM71.91,88a3.84,3.84,0,0,0,4.82-.19,37.74,37.74,0,0,1,12.08-7.18,3.82,3.82,0,0,0,2.48-4.13l-.83-5.75,9.45-1.35.82,5.75a3.81,3.81,0,0,0,3.54,3.26,37.66,37.66,0,0,1,13.61,3.49,3.82,3.82,0,0,0,4.68-1.17L126,76.1l7.64,5.72-3.49,4.66a3.81,3.81,0,0,0,.19,4.81,37.74,37.74,0,0,1,7.18,12.08,3.81,3.81,0,0,0,4.13,2.48l5.75-.83,1.35,9.45-5.74.82a3.82,3.82,0,0,0-3.27,3.54,37.6,37.6,0,0,1-3.49,13.61,3.82,3.82,0,0,0,1.17,4.68l4.66,3.48-5.72,7.64-4.66-3.49a3.83,3.83,0,0,0-4.81.19,37.84,37.84,0,0,1-12.08,7.18,3.81,3.81,0,0,0-2.48,4.13l.83,5.75-9.45,1.36-.82-5.75a3.82,3.82,0,0,0-3.54-3.27,37.55,37.55,0,0,1-13.61-3.49A3.82,3.82,0,0,0,81.1,152l-3.48,4.66L70,151l3.49-4.66a3.83,3.83,0,0,0-.19-4.81,37.66,37.66,0,0,1-7.18-12.08A3.82,3.82,0,0,0,62,126.93l-5.75.83-1.36-9.45,5.75-.82A3.82,3.82,0,0,0,63.88,114a37.55,37.55,0,0,1,3.49-13.61,3.85,3.85,0,0,0-1.17-4.68l-4.66-3.48,5.72-7.64Z"/><path class="cls-1" d="M101.81,143.85a28.94,28.94,0,0,0,3.92-.28,27.45,27.45,0,1,0-3.92.28Zm19.63-30.27A19.81,19.81,0,1,1,99,96.78a19.46,19.46,0,0,1,2.83-.21A19.84,19.84,0,0,1,121.44,113.58Z"/></svg>