<svg id="Layer_1" data-name="Layer 1" xmlns="http://www.w3.org/2000/svg" viewBox="0 0 300 300"><defs><style>.cls-1{fill:#1f325f;}</style></defs><title>tjenester1</title><path class="cls-1" d="M215.68,54.66l-23.35,20.9c-1-.2-2-.36-3-.49-7-3.35-19.66-6.17-35.35,4.45l-.37.29-5.22,4.64c-17.76-13.69-32.93-6.84-37.23-4.36L91.24,57.87l-61.7,54.62,23.29,26c-.43,9.9,2.47,20.24,8.67,30.89a80.45,80.45,0,0,0,8.94,12.3c4.27,4.88,8.59,9.71,12.89,14.56-5.4,6.93-3.63,13,1.21,18.74,5,5.92,9.93,6.87,17.33,5.21a.15.15,0,0,1,.17.07c4.74,8.14,9.33,12.22,14.49,13,2,2.22,4,4.47,6.07,6.69a20.19,20.19,0,0,0,23.76,4.6c3.46-1.71,4.12-3.25,6-5.87,12.42,11.79,21.14,12.52,32.37-2.27a.14.14,0,0,1,.18,0c7.14,2.55,12.13,2.19,17.83-3.07s8.28-11.58,2.65-19.75c0-.06-1.5-2.21-1.42-2.19,4.35.4,8-2.16,10-4.51,5.46-6.24,5.56-13.13.55-20.24,2.52-2.24,5.06-4.45,7.57-6.71a79.09,79.09,0,0,0,10.37-11.12c7.45-9.82,11.58-19.73,12.35-29.61l25.47-22.78ZM74.49,173.48C68.23,166,63.69,157.9,62,148.92a41.49,41.49,0,0,1-.66-6.14,43.73,43.73,0,0,1,.16-5.22l-21-23.72,51-45.14L106,85.05l1,1.07-.07.16,7.4,1.07.56-1.17c3.06-1.82,15.66-7.84,31.18,5.55l20.21,22.93a5.74,5.74,0,0,1,1.41,4.19,5.68,5.68,0,0,1-1.93,4l-1.51,1.33a5.79,5.79,0,0,1-8.16-.51l-20.67-23.47-5.58,3.42,5.53,7.34,2.42,2.75-8.05,7.13a4.33,4.33,0,0,0-1.29,1.94l-.4.37Q104.45,144,80.88,164.87A22.8,22.8,0,0,0,74.49,173.48Zm67.73,64.32a7.36,7.36,0,0,1-6.15,2c-3.5-.48-5.78-3.32-7.38-5.1-1-1.09-1.94-2.19-2.92-3.28a47.55,47.55,0,0,0,8.12-5c1.56,2.82,2,4.43,5.25,6.55a19.71,19.71,0,0,0,4.58,2.21A5.57,5.57,0,0,1,142.22,237.8Zm31.91-1.05c-3.54,3.68-7.34,3.79-11.89-1-.71-.74-1.4-1.49-2.1-2.23a20.88,20.88,0,0,0,3.14-2.2c2.93-2.5,5.82-5,8.74-7.55.27.32.54.62.82.94C177.1,229.55,177.48,233.27,174.13,236.75Zm23.73-10.63c-3.61,4.36-8.72,4.14-13-.68q-3.19-3.6-6.38-7.22c4-3.43,7.94-6.83,11.89-10.28,2,2.24,4,4.47,5.94,6.71C200.11,219,200.57,222.87,197.86,226.12Zm11-26.38a7.72,7.72,0,0,1-11,3.39,10.82,10.82,0,0,1-1.09-.79c3.82-3.35,7.61-6.74,11.41-10.11A7,7,0,0,1,208.82,199.74Zm27.5-62.61a43.86,43.86,0,0,1-.48,5.2,40.75,40.75,0,0,1-1.4,6c-2.75,8.75-8.27,16.29-15.44,23-9.71,9.06-19.84,17.67-29.79,26.47-10.43,9.24-20.84,18.53-31.35,27.68-1.8,1.58-4.41,4.11-7.94,4.17a7.34,7.34,0,0,1-5.85-2.77c-1.44-1.55-1.71-5.22-1-7.47.78-2.43,3.11-4.54,5.14-6.38,4.76-4.31,9.61-8.54,14.41-12.81,2.34-2.08,4.68-4.17,7-6.29s9.52-6.88,6-10.66c-3.29-3.47-8.66,2.51-10.88,4.49s-4.69,4.16-7.06,6.21c-11,9.54-21.93,19.23-33.2,28.47-5.1,4.18-8.86,3.61-11.92-.47-2.91-3.87-2.08-7.51,2.74-11.78q18.76-16.65,37.56-33.28c1.76-1.55,3.26-2.55,3.71-5.06.34-1.86-.24-3.56-2.15-4-3.22-.69-4.7.47-6.92,2.42q-22.1,19.58-44.21,39.12c-4.85,4.28-9.94,3.87-13-.89-2.29-3.56-1.36-7.37,3-11.2q22.42-19.94,44.94-39.78c2.45-2.16,4.42-4.62,1.75-7.44s-5-.6-7.2,1.34q-17.3,15.38-34.64,30.66a22.62,22.62,0,0,1-5,3.6A7.71,7.71,0,0,1,82.58,181c-1.48-4.45.92-7.07,3.85-9.66q28.72-25.34,57.31-50.85l6.94,7.88a12.95,12.95,0,0,0,18.25,1.15l1.5-1.32A12.87,12.87,0,0,0,172,110.44L156.56,92.88h0l-3-3.43,4.65-4.14c7.09-4.75,13.25-6.2,18.25-6.14,9.18-.27,17,5,17,5l5.15-4.56,16.34-14.47,45.15,51Z"/></svg>