<svg id="Layer_1" data-name="Layer 1" xmlns="http://www.w3.org/2000/svg" viewBox="0 0 300 300"><defs><style>.cls-1{fill:#1f325f;}</style></defs><title>tjenester3</title><path class="cls-1" d="M252.69,107.77a4.83,4.83,0,0,0-4-2.14h-54V73.88H27.79V202H47.11a24.4,24.4,0,0,0,47.82,0h18.62c4.86-4.27,1.9-9.68-2.32-9.68H94.93a24.39,24.39,0,0,0-47.82,0H37.47V83.56H185v108.8H126.13c-4.86,4.26-1.89,9.68,2.33,9.68h71.43a24.39,24.39,0,0,0,47.81,0h37.56V157.71a4.85,4.85,0,0,0-.82-2.7ZM62.35,185c14.44-8.63,29.49,6.47,20.83,20.88a10.17,10.17,0,0,1-3.48,3.48c-14.43,8.66-29.52-6.45-20.84-20.88A10.11,10.11,0,0,1,62.35,185Zm170.11,24.38C218,218,203,202.92,211.62,188.51A10.25,10.25,0,0,1,215.1,185c14.44-8.68,29.55,6.45,20.85,20.88A10.28,10.28,0,0,1,232.46,209.39Zm43.12-17H247.7a24.39,24.39,0,0,0-47.81,0h-5.23V115.31H246.1l29.48,43.87Z"/><path class="cls-1" d="M54.31,129.05H70.7c4.81-4.28,1.87-9.68-2.35-9.68H52C47.13,123.65,50.09,129.05,54.31,129.05Z"/><path class="cls-1" d="M168.14,119.37H82.57c-4.85,4.28-1.9,9.68,2.33,9.68h85.59C175.32,124.77,172.36,119.37,168.14,119.37Z"/><path class="cls-1" d="M168.14,146.86H151.78c-4.85,4.27-1.9,9.68,2.33,9.68h16.36C175.32,152.27,172.36,146.86,168.14,146.86Z"/><path class="cls-1" d="M54.31,156.54h85.57c4.86-4.27,1.9-9.68-2.32-9.68H52C47.13,151.13,50.09,156.54,54.31,156.54Z"/><path class="cls-1" d="M239.42,123.62H203.47v35.84H257a4.83,4.83,0,0,0,4-7.54l-17.58-26.16A4.84,4.84,0,0,0,239.42,123.62Zm-26.27,26.16V133.3h23.69l11.08,16.48Z"/></svg>