<?xml version="1.0" encoding="utf-8"?>
<!-- Generator: Adobe Illustrator 23.0.3, SVG Export Plug-In . SVG Version: 6.00 Build 0)  -->
<svg version="1.1" id="Layer_1" xmlns="http://www.w3.org/2000/svg" xmlns:xlink="http://www.w3.org/1999/xlink" x="0px" y="0px"
	 viewBox="0 0 1410.7 284.8" style="enable-background:new 0 0 1410.7 284.8;" xml:space="preserve">
<style type="text/css">
	.st0{fill:#E2E2E2;}
	.st1{fill:none;}
	.st2{fill:#303030;}
	.st3{font-family:'Roboto-Medium';}
	.st4{font-size:31.7075px;}
	.st5{fill:#1F325F;}
	.st6{fill:none;stroke:#1F325F;stroke-width:7.0614;stroke-miterlimit:10;}
</style>
<rect x="-32.2" y="-47.5" class="st0" width="1465.8" height="378.2"/>
<rect x="871.6" y="212.5" class="st1" width="278" height="61.8"/>
<text id="Duis_aute_irure_dolor_in_x0D_reprehenderit_in_voluptate._25_" transform="matrix(1 0 0 1 924.1984 239.629)" class="st2 st3 st4">Distribusjon</text>
<rect x="1169.9" y="212.5" class="st1" width="278" height="61.8"/>
<text id="Duis_aute_irure_dolor_in_x0D_reprehenderit_in_voluptate._23_" transform="matrix(1 0 0 1 1230.5969 239.629)" class="st2 st3 st4">Oppfølging</text>
<rect x="571.1" y="212.5" class="st1" width="278" height="61.8"/>
<text id="Duis_aute_irure_dolor_in_x0D_reprehenderit_in_voluptate._22_" transform="matrix(1 0 0 1 628.8596 239.629)" class="st2 st3 st4">Produksjon</text>
<rect x="279.9" y="212.5" class="st1" width="278" height="61.8"/>
<text id="Duis_aute_irure_dolor_in_x0D_reprehenderit_in_voluptate._5_" transform="matrix(1 0 0 1 356.0368 239.629)" class="st2 st3 st4">Utvikling</text>
<rect x="-32.2" y="212.5" class="st1" width="278" height="61.8"/>
<text id="Duis_aute_irure_dolor_in_x0D_reprehenderit_in_voluptate._3_" transform="matrix(1 0 0 1 22.5886 239.629)" class="st2 st3 st4">Planlegging</text>
<g id="XMLID_1_">
	<path id="XMLID_11_" class="st5" d="M711.9,118.6c-0.6-0.1-1.3,0-1.8,0.4c-0.5,0.4-0.9,0.9-1,1.6l-2.1,10.8
		c-0.3,1.3,0.6,2.6,1.9,2.9l4.2,0.8c0.2,2.3,0.7,4.5,1.4,6.7l-3.5,2.4c-0.5,0.4-0.9,0.9-1,1.6c-0.1,0.6,0,1.3,0.4,1.8l6.2,9.1
		c0.4,0.5,0.9,0.9,1.6,1c0.6,0.1,1.3,0,1.8-0.4l3.5-2.4c1.8,1.5,3.7,2.7,5.7,3.8l-0.8,4.2c-0.3,1.3,0.6,2.6,1.9,2.9l10.8,2.1
		c0.2,0,0.3,0,0.5,0c1.2,0,2.2-0.8,2.4-2l0.8-4.2c2.3-0.2,4.5-0.7,6.7-1.4l2.4,3.5c0.4,0.5,0.9,0.9,1.6,1c0.6,0.1,1.3,0,1.8-0.4
		l9.1-6.2c1.1-0.8,1.4-2.3,0.6-3.4l-2.4-3.5c1.5-1.8,2.7-3.7,3.8-5.7l4.2,0.8c1.3,0.3,2.6-0.6,2.9-1.9l2.1-10.8
		c0.1-0.6,0-1.3-0.4-1.8c-0.4-0.5-0.9-0.9-1.6-1l-4.2-0.8c-0.2-2.3-0.7-4.5-1.4-6.7l3.5-2.4c1.1-0.8,1.4-2.3,0.6-3.4l-6.2-9.1
		c-0.4-0.5-0.9-0.9-1.6-1c-0.6-0.1-1.3,0-1.8,0.4l-3.5,2.4c-1.8-1.5-3.7-2.7-5.7-3.8l0.8-4.2c0.3-1.3-0.6-2.6-1.9-2.9l-10.8-2.1
		c-0.6-0.1-1.3,0-1.8,0.4c-0.5,0.4-0.9,0.9-1,1.6l-0.8,4.2c-2.3,0.2-4.5,0.7-6.7,1.4l-2.4-3.5c-0.4-0.5-0.9-0.9-1.6-1
		c-0.6-0.1-1.3,0-1.8,0.4l-9.1,6.2c-0.5,0.4-0.9,0.9-1,1.6c-0.1,0.6,0,1.3,0.4,1.8l2.4,3.5c-1.5,1.8-2.7,3.7-3.8,5.7L711.9,118.6z
		 M719.8,123.1c1.2-2.8,2.8-5.3,4.9-7.5c0.8-0.8,0.9-2.1,0.3-3.1l-2.1-3.1l5.1-3.4l2.1,3.1c0.7,1,1.9,1.3,3,0.9
		c2.8-1.2,5.8-1.8,8.8-1.8c1.2,0,2.1-0.9,2.4-2l0.7-3.7l6,1.1l-0.7,3.7c-0.2,1.1,0.4,2.3,1.5,2.7c2.8,1.2,5.3,2.8,7.5,4.9
		c0.8,0.8,2.1,0.9,3.1,0.3l3.1-2.1l3.4,5.1l-3.1,2.1c-1,0.7-1.3,1.9-0.9,3c1.2,2.8,1.8,5.8,1.8,8.8c0,1.2,0.9,2.1,2,2.4l3.7,0.7
		l-1.1,6l-3.7-0.7c-1.1-0.2-2.3,0.4-2.7,1.5c-1.2,2.8-2.8,5.3-4.9,7.5c-0.8,0.8-0.9,2.1-0.3,3.1l2.1,3.1l-5.1,3.4l-2.1-3.1
		c-0.7-1-1.9-1.3-3-0.9c-2.8,1.2-5.8,1.8-8.8,1.8c-1.2,0-2.1,0.8-2.4,2l-0.7,3.7l-6-1.1l0.7-3.7c0.2-1.1-0.4-2.3-1.5-2.7
		c-2.8-1.2-5.3-2.8-7.5-4.9c-0.8-0.8-2.1-0.9-3.1-0.3l-3.1,2.1l-3.4-5.1l3.1-2.1c1-0.7,1.3-1.9,0.9-3c-1.2-2.8-1.8-5.8-1.8-8.8
		c0-1.2-0.8-2.1-2-2.4l-3.7-0.7l1.1-6l3.7,0.7C718.2,124.8,719.3,124.1,719.8,123.1z"/>
	<path id="XMLID_8_" class="st5" d="M738.9,149.7L738.9,149.7c1.1,0.2,2.2,0.3,3.3,0.3c8.3,0,15.7-5.9,17.3-14.3
		c1.8-9.5-4.5-18.7-14-20.6c-4.6-0.9-9.3,0.1-13.2,2.7c-3.9,2.6-6.5,6.6-7.4,11.2c-0.9,4.6,0.1,9.3,2.7,13.2
		C730.3,146.2,734.3,148.8,738.9,149.7z M729.8,130.1c0.6-3.3,2.5-6.2,5.3-8.1c2.1-1.4,4.6-2.2,7.1-2.2c0.8,0,1.6,0.1,2.4,0.2
		c6.9,1.3,11.4,8,10.1,14.8c-0.6,3.3-2.5,6.2-5.3,8.1c-2.8,1.9-6.2,2.6-9.5,2h0c-3.3-0.6-6.2-2.5-8.1-5.3
		C729.8,136.8,729.1,133.4,729.8,130.1z"/>
	<path id="XMLID_5_" class="st5" d="M646.8,99.8c0.2,1.3,1.4,2.3,2.8,2.1l4.2-0.6c0.9,2.1,2.1,4.1,3.5,5.9l-2.5,3.4
		c-0.4,0.5-0.6,1.2-0.5,1.8c0.1,0.6,0.4,1.2,1,1.6l8.8,6.6c1.1,0.8,2.6,0.6,3.4-0.5l2.5-3.4c2.1,0.8,4.4,1.4,6.6,1.7l0.6,4.2
		c0.1,0.6,0.4,1.2,1,1.6c0.4,0.3,0.9,0.5,1.5,0.5c0.1,0,0.2,0,0.3,0l10.9-1.6c1.3-0.2,2.3-1.4,2.1-2.8l-0.6-4.2
		c2.1-0.9,4.1-2.1,5.9-3.5l3.4,2.5c1.1,0.8,2.6,0.6,3.4-0.5l6.6-8.8c0.8-1.1,0.6-2.6-0.5-3.4l-3.4-2.5c0.8-2.1,1.4-4.4,1.7-6.6
		l4.2-0.6c0.6-0.1,1.2-0.4,1.6-1c0.4-0.5,0.6-1.2,0.5-1.8L714.3,79c-0.2-1.3-1.4-2.3-2.8-2.1l-4.2,0.6c-0.9-2.1-2.1-4.1-3.5-5.9
		l2.5-3.4c0.4-0.5,0.6-1.2,0.5-1.8c-0.1-0.6-0.4-1.2-1-1.6l-8.8-6.6c-0.5-0.4-1.2-0.6-1.8-0.5c-0.6,0.1-1.2,0.4-1.6,1l-2.5,3.4
		c-2.1-0.8-4.4-1.4-6.6-1.7l-0.6-4.2c-0.2-1.3-1.4-2.3-2.8-2.1l-10.9,1.6c-0.6,0.1-1.2,0.4-1.6,1c-0.4,0.5-0.6,1.2-0.5,1.8l0.6,4.2
		c-2.1,0.9-4.1,2.1-5.9,3.5l-3.4-2.5c-0.5-0.4-1.2-0.6-1.8-0.5c-0.6,0.1-1.2,0.4-1.6,1l-6.6,8.8c-0.4,0.5-0.6,1.2-0.5,1.8
		c0.1,0.6,0.4,1.2,1,1.6l3.4,2.5c-0.8,2.1-1.4,4.4-1.7,6.6l-4.2,0.6c-0.6,0.1-1.2,0.4-1.6,1c-0.4,0.5-0.6,1.2-0.5,1.8L646.8,99.8z
		 M661.4,71.3c0.9,0.7,2.2,0.6,3.1-0.1c2.3-2,4.9-3.6,7.7-4.6c1.1-0.4,1.8-1.5,1.6-2.6l-0.5-3.7l6.1-0.9l0.5,3.7
		c0.2,1.1,1.1,2,2.3,2.1c3,0.2,6,0.9,8.7,2.2c1.1,0.5,2.3,0.2,3-0.7l2.2-3l4.9,3.7l-2.2,3c-0.7,0.9-0.6,2.2,0.1,3.1
		c2,2.3,3.6,4.9,4.6,7.7c0.4,1.1,1.5,1.7,2.6,1.6l3.7-0.5l0.9,6l-3.7,0.5c-1.1,0.2-2,1.1-2.1,2.3c-0.2,3-0.9,6-2.2,8.7
		c-0.5,1-0.2,2.3,0.7,3l3,2.2l-3.7,4.9l-3-2.2c-0.9-0.7-2.2-0.6-3.1,0.1c-2.3,2-4.9,3.6-7.7,4.6c-1.1,0.4-1.8,1.5-1.6,2.6l0.5,3.7
		l-6,0.9l-0.5-3.7c-0.2-1.1-1.1-2-2.3-2.1c-3-0.2-6-0.9-8.7-2.2c-0.3-0.2-0.7-0.2-1-0.2c-0.8,0-1.5,0.3-2,1l-2.2,3l-4.9-3.7l2.2-3
		c0.7-0.9,0.6-2.2-0.1-3.1c-2-2.3-3.6-4.9-4.6-7.7c-0.4-1.1-1.5-1.8-2.6-1.6l-3.7,0.5l-0.9-6l3.7-0.5c1.1-0.2,2-1.1,2.1-2.3
		c0.2-3,0.9-6,2.2-8.7c0.5-1,0.2-2.3-0.8-3l-3-2.2l3.7-4.9L661.4,71.3z"/>
	<path id="XMLID_2_" class="st5" d="M680.5,107c0.8,0,1.7-0.1,2.5-0.2c9.6-1.4,16.3-10.3,14.9-19.9c-1.4-9.6-10.3-16.3-19.9-14.9
		c-9.6,1.4-16.3,10.3-14.9,19.9C664.4,100.7,671.9,107,680.5,107z M693.1,87.6c1,6.9-3.8,13.4-10.8,14.4c-6.9,1-13.4-3.8-14.4-10.8
		c-1-6.9,3.8-13.4,10.8-14.4c0.6-0.1,1.2-0.1,1.8-0.1C686.8,76.7,692.2,81.3,693.1,87.6z"/>
</g>
<polyline class="st6" points="266.7,86.2 288.4,107.9 268.5,127.8 "/>
<polyline class="st6" points="547.1,86.2 568.7,107.9 548.8,127.8 "/>
<polyline class="st6" points="854.1,86.2 875.7,107.9 855.8,127.8 "/>
<polyline class="st6" points="1169.1,86.2 1190.8,107.9 1170.9,127.8 "/>
<g id="XMLID_9341_">
	<path id="XMLID_9345_" class="st5" d="M396.6,157.2c2.2,2.3,5.3,3.5,9.2,3.5c3.9,0,7.1-1.2,9.4-3.5c3.6-3.6,3.6-8.7,3.6-9.1v-3.3
		c0,0,0,0,0,0V60.6h-0.5l-7.6-10.8c-0.4-0.5-1-0.8-1.6-0.8h0c-0.1,0-0.2-0.1-0.2-0.1l-2.7-5.7c-0.1-0.2-0.3-0.2-0.4,0l-2.7,5.7
		c0,0.1-0.1,0.1-0.2,0.1h0c-0.6,0-1.3,0.3-1.6,0.8l-7.7,10.8H393v85h0v2C393,147.8,392.9,153.4,396.6,157.2z M415.3,148.2
		L415.3,148.2C415.3,148.2,415.3,148.2,415.3,148.2c0,0,0,4-2.6,6.6c-1.6,1.6-3.9,2.4-6.9,2.4c-2.9,0-5.1-0.8-6.6-2.4
		c-2.7-2.8-2.7-7.1-2.7-7.2v-1h18.8V148.2z M402.9,143.2L402.9,143.2v-0.2V63.5v-0.2h0.2h5.3h0.2v0.2v79.4v0.2v0h-0.2h-5.3H402.9z
		 M415.3,64.1v0.2V142v0.2h-0.2h-4.4h-0.2V142V64.3v-0.2h0.2h4.4H415.3z M398.4,59.6L398.4,59.6l2.5-3.5l2.5-3.5l0,0
		c0-0.1,0.1-0.1,0.2-0.1h4.6c0.1,0,0.1,0,0.2,0.1l0,0l4.6,6.5l0.4,0.6c0.1,0.2,0,0.4-0.2,0.4h-14.6C398.4,60,398.3,59.7,398.4,59.6z
		 M396.5,142V64.3v-0.2h0.2h4.1h0.2v0.2V142v0.2h-0.2h-4.1h-0.2V142z"/>
	<path id="XMLID_9342_" class="st5" d="M447.7,51.2l-19.4,0.1c-2.6,0-4.7,2.1-4.6,4.7l0.8,100.9c0,2.6,2.1,4.7,4.7,4.6l19.4-0.1
		c2.6,0,4.7-2.1,4.6-4.7l-0.8-100.9C452.4,53.3,450.3,51.2,447.7,51.2z M448.5,159.2l-19.4,0.1c-1.3,0-2.4-1-2.4-2.3l-0.8-100.9
		c0-1.3,1-2.4,2.4-2.4l19.4-0.1c1.3,0,2.4,1,2.4,2.4l0.1,14.8c-2.7,0-5.4,0-8.1,0.1c-1.2,0-1.2,1.9,0,1.9c2.7,0,5.4,0,8.1-0.1l0,5.5
		c-2.7,0-5.4,0-8.1,0.1c-1.2,0-1.2,1.9,0,1.9c2.7,0,5.4,0,8.1-0.1l0,5.5c-2.7,0-5.4,0-8.1,0.1c-1.2,0-1.2,1.9,0,1.9
		c2.7,0,5.4,0,8.1-0.1l0,5.5c-4.6,0-9.2,0.1-13.7,0.1c-1.2,0-1.2,1.9,0,1.9c4.6,0,9.2-0.1,13.7-0.1l0,5.5c-2.7,0-5.4,0-8.1,0.1
		c-1.2,0-1.2,1.9,0,1.9c2.7,0,5.4,0,8.1-0.1l0,5.5c-2.7,0-5.4,0-8.1,0.1c-1.2,0-1.2,1.9,0,1.9c2.7,0,5.4,0,8.1-0.1l0,5.5
		c-2.7,0-5.4,0-8.1,0.1c-1.2,0-1.2,1.9,0,1.9c2.7,0,5.4,0,8.1-0.1l0,5.5c-4.6,0-9.2,0.1-13.8,0.1c-1.2,0-1.2,1.9,0,1.9
		c4.6,0,9.2-0.1,13.8-0.1l0,5.5c-2.7,0-5.4,0-8.1,0.1c-1.2,0-1.2,1.9,0,1.9c2.7,0,5.4,0,8.1-0.1l0,5.5c-2.7,0-5.4,0-8.1,0.1
		c-1.2,0-1.2,1.9,0,1.9c2.7,0,5.4,0,8.1-0.1l0.1,17.1C450.9,158.1,449.8,159.2,448.5,159.2z"/>
</g>
<g>
	<path class="st5" d="M1075.4,81.7c-0.5-0.8-1.5-1.3-2.4-1.3h-32.7V61.1H939.1v77.7h11.7c1.4,6.8,7.3,11.9,14.5,11.9
		c7.1,0,13.1-5.1,14.5-11.9h11.3c0,0,0,0,0,0c2.9-2.6,1.2-5.9-1.4-5.9h-9.9c-1.4-6.8-7.3-11.9-14.5-11.9c-7.1,0-13.1,5.1-14.5,11.9
		h-5.8V67h89.4v16.3v49.6l-35.7,0c0,0,0,0,0,0c-2.9,2.6-1.2,5.9,1.4,5.9h37.2h6.1c1.4,6.8,7.3,11.9,14.5,11.9s13.1-5.1,14.5-11.9
		h22.8v-26.9c0-0.6-0.2-1.2-0.5-1.6L1075.4,81.7z M960,128.5c8.8-5.2,17.9,3.9,12.6,12.7c-0.5,0.9-1.2,1.6-2.1,2.1
		c-8.7,5.2-17.9-3.9-12.6-12.7C958.4,129.7,959.2,129,960,128.5z M1063.2,143.3c-8.8,5.2-17.9-3.9-12.6-12.7
		c0.5-0.9,1.2-1.6,2.1-2.1c8.8-5.3,17.9,3.9,12.6,12.7C1064.8,142,1064,142.7,1063.2,143.3z M1089.3,132.9h-16.9
		c-1.4-6.8-7.3-11.9-14.5-11.9s-13.1,5.1-14.5,11.9h-3.2V86.2h31.2l17.9,26.6V132.9z"/>
	<path class="st5" d="M955.2,94.6h9.9c2.9-2.6,1.1-5.9-1.4-5.9l-9.9,0c0,0,0,0,0,0C950.8,91.3,952.6,94.6,955.2,94.6z"/>
	<path class="st5" d="M1024.2,88.7l-51.9,0c-2.9,2.6-1.1,5.9,1.4,5.9h51.9C1028.5,92,1026.7,88.7,1024.2,88.7z"/>
	<path class="st5" d="M1024.2,105.4l-9.9,0c0,0,0,0,0,0c-2.9,2.6-1.2,5.9,1.4,5.9l9.9,0C1028.5,108.6,1026.7,105.4,1024.2,105.4z"/>
	<path class="st5" d="M955.2,111.2l51.9,0c2.9-2.6,1.1-5.9-1.4-5.9l-51.9,0c0,0,0,0,0,0C950.8,107.9,952.6,111.2,955.2,111.2z"/>
	<path class="st5" d="M1067.4,91.3h-21.8V113l32.5,0c1.1,0,2.1-0.6,2.6-1.6c0.5-1,0.4-2.1-0.2-3l-10.7-15.9
		C1069.3,91.7,1068.4,91.3,1067.4,91.3z M1051.5,107.1v-10h14.4l6.7,10H1051.5z"/>
</g>
<g id="XMLID_10562_">
	<path id="XMLID_10564_" class="st5" d="M1353.1,63.8c0-2.5-2-4.5-4.5-4.5h-79.3c-2.5,0-4.5,2-4.5,4.5c0,2.4,1.9,4.4,4.4,4.5
		c-0.2,0.6-0.2,1.3-0.2,2v41.8c0,0.7,0.1,1.3,0.2,2c-2.4,0.1-4.4,2.1-4.4,4.5c0,2.5,2,4.5,4.5,4.5h35.6c-0.1,0.3-0.1,0.6-0.1,0.9
		v10.7c-0.2,0.1-0.4,0.3-0.6,0.5l-15.3,15.9c-0.7,0.7-1,1.8-0.8,3c0.2,1,0.7,2,1.5,2.8c0.8,0.8,1.8,1.3,2.9,1.4
		c1.1,0.1,2.2-0.2,2.9-0.9l9.4-9.8v8c0,2.6,2,4.7,4.5,4.7c2.5,0,4.5-2.1,4.5-4.7v-8.1l10.8,10.4c0.8,0.7,1.9,1.1,3,0.9
		c1-0.2,2.1-0.7,2.8-1.5c0.8-0.8,1.3-1.9,1.4-2.9c0.1-1.2-0.2-2.2-1-3l0,0l-16.6-16c-0.1-0.1-0.3-0.2-0.4-0.3V124
		c0-0.3,0-0.6-0.1-0.9h34.9c2.5,0,4.5-2,4.5-4.5c0-1.8-1.1-3.4-2.7-4.1c0.2-0.7,0.3-1.5,0.3-2.3V70.3c0-0.8-0.1-1.6-0.3-2.3
		C1352,67.3,1353.1,65.7,1353.1,63.8z M1329.1,153.2c0.3,0.3,0.3,0.6,0.2,0.9c-0.1,0.5-0.3,1-0.7,1.4c-0.4,0.4-0.9,0.7-1.4,0.8
		c-0.2,0-0.6,0-0.9-0.2l-12.9-12.5c-0.4-0.4-0.9-0.5-1.4-0.3c-0.5,0.2-0.8,0.7-0.8,1.2v11.1c0,1.2-0.9,2.2-2,2.2c-1.1,0-2-1-2-2.2
		v-11.2c0-0.5-0.3-1-0.8-1.2c-0.2-0.1-0.3-0.1-0.5-0.1c-0.3,0-0.7,0.1-0.9,0.4l-11.6,12c-0.2,0.2-0.6,0.2-0.8,0.2
		c-0.5-0.1-1-0.3-1.4-0.7c-0.4-0.4-0.7-0.9-0.8-1.4c0-0.2-0.1-0.6,0.2-0.8l15.3-15.9c0.1-0.1,0.2-0.1,0.3-0.2c0.6-0.1,1-0.6,1-1.2
		V124c0-0.3,0.1-0.6,0.2-0.9h3.6c0.1,0.3,0.2,0.6,0.2,0.9v11.9c0,0.6,0.4,1,0.9,1.2c0.1,0,0.2,0.1,0.3,0.2L1329.1,153.2z
		 M1350.5,118.6c0,1.1-0.9,2-2,2h-79.3c-1.1,0-2-0.9-2-2c0-1.1,0.9-2,2-2h79.3C1349.7,116.6,1350.5,117.5,1350.5,118.6z
		 M1272.7,112.1V70.3c0-0.7,0.2-1.4,0.5-2h73.3c0.3,0.6,0.5,1.3,0.5,2v41.8c0,0.7-0.2,1.4-0.5,2h-73.3
		C1272.9,113.5,1272.7,112.8,1272.7,112.1z M1348.6,65.8h-79.3c-1.1,0-2-0.9-2-2c0-1.1,0.9-2,2-2h79.3c1.1,0,2,0.9,2,2
		C1350.5,64.9,1349.7,65.8,1348.6,65.8z"/>
	<path id="XMLID_10563_" class="st5" d="M1336.6,75.8c-0.8-0.6-2-0.5-2.7,0.4l-11.5,15.3l-15.4-7.7c-0.9-0.4-1.9-0.2-2.4,0.6
		l-10.6,16h-11.5c-1.1,0-1.9,0.9-1.9,1.9c0,1.1,0.9,1.9,1.9,1.9h12.5c0.6,0,1.2-0.3,1.6-0.8l10.3-15.4l15.3,7.7
		c0.8,0.4,1.8,0.2,2.4-0.6l12.5-16.6C1337.6,77.7,1337.4,76.5,1336.6,75.8z"/>
</g>
<g id="XMLID_10724_">
	<path id="XMLID_10736_" class="st5" d="M81.2,112H89v24.5c0,0.7,0.6,1.3,1.3,1.3h6.8c0.7,0,1.3-0.6,1.3-1.3V99.1
		c0-0.7-0.6-1.3-1.3-1.3h-5.8c-0.7,0-1.3,0.6-1.3,1.3c0,0.1,0,0.4-0.2,1.1c-0.3,0.9-0.6,1.6-1.1,2.1c-0.7,0.8-1.7,1.3-2.9,1.6
		c-0.8,0.2-2.4,0.3-4.6,0.4c-0.7,0-1.3,0.6-1.3,1.3v5C79.8,111.4,80.4,112,81.2,112z M82.5,106.9c1.7-0.1,3-0.2,3.8-0.4
		c1.7-0.4,3.2-1.2,4.3-2.3c0.8-0.8,1.4-1.9,1.8-3.2c0.1-0.2,0.1-0.4,0.1-0.5h3.4v34.7h-4.2v-24.5c0-0.7-0.6-1.3-1.3-1.3h-7.8V106.9z
		"/>
	<path id="XMLID_10733_" class="st5" d="M106.4,134.9c2.5,2.1,5.7,3.2,9.6,3.2c4.8,0,8.5-1.5,11-4.6c2.4-2.9,3.6-6.3,3.6-10.1
		c0-4.3-1.3-7.7-3.9-10c-2.5-2.3-5.5-3.5-9-3.5c-1.7,0-3.1,0.2-4.4,0.7c-0.2,0.1-0.4,0.2-0.6,0.3l0.4-4.4h12.2
		c0.7,0,1.3-0.6,1.3-1.3V99c0-0.7-0.6-1.3-1.3-1.3h-20c-0.7,0-1.3,0.5-1.3,1.2l-1.4,20.6c0,0.4,0.1,0.7,0.3,1
		c0.2,0.3,0.6,0.4,0.9,0.4l7.3,0.3c0.5,0,1-0.3,1.2-0.7c0.4-0.8,1-1.3,1.8-1.6c0.5-0.2,1.1-0.3,1.9-0.3c1.4,0,2.4,0.4,3,1.4
		c0.7,1.1,1.1,2.4,1.1,4.1c0,1.6-0.4,3-1.2,4c-0.7,0.9-1.7,1.4-3.1,1.4c-1.2,0-2.1-0.3-2.6-0.9c-0.6-0.7-1.1-1.7-1.3-3
		c-0.1-0.6-0.7-1.1-1.3-1.1h-7.3c-0.4,0-0.7,0.2-1,0.4c-0.3,0.3-0.4,0.6-0.4,1C102.4,129.7,103.9,132.8,106.4,134.9z M109.7,127.1
		c0.4,1.3,1,2.4,1.8,3.3c1.1,1.1,2.6,1.7,4.6,1.7c2.2,0,4-0.8,5.2-2.5c1.1-1.5,1.7-3.4,1.7-5.6c0-2.2-0.5-4-1.6-5.6
		c-1.2-1.7-2.9-2.6-5.3-2.6c-1,0-1.9,0.1-2.8,0.4c-1.2,0.4-2.2,1.2-2.9,2.2l-5.2-0.2l1.2-18H124v3.5h-12.1c-0.7,0-1.3,0.5-1.3,1.2
		l-0.7,8.2c0,0.5,0.2,1,0.7,1.3c0.4,0.3,1,0.2,1.4,0c1.3-0.8,2-1.2,2.4-1.3c0.9-0.3,2.1-0.5,3.4-0.5c2.8,0,5.1,0.9,7.2,2.8
		c2,1.8,3,4.5,3,8.1c0,3.2-1,5.9-3,8.4c-2,2.4-4.9,3.6-8.9,3.6c-3.2,0-5.8-0.8-7.9-2.5c-1.7-1.4-2.7-3.3-3.1-5.7H109.7z"/>
	<path id="XMLID_10728_" class="st5" d="M145.6,60.4h-3.3c-0.3,0-0.6,0.1-0.8,0.2v-11c0-3.6-3-6.6-6.6-6.6c-3.6,0-6.6,3-6.6,6.6
		v10.9c-0.1,0-0.2,0-0.4,0H82.5c-0.2,0-0.3,0-0.5,0.1V49.5c0-3.6-3-6.6-6.6-6.6c-3.6,0-6.6,3-6.6,6.6v10.9c-0.2-0.1-0.4-0.1-0.7-0.1
		h-3.3c-6.3,0-11.4,5.1-11.4,11.4v72.6c0,6.3,5.1,11.4,11.4,11.4h80.7c6.3,0,11.4-5.1,11.4-11.4V71.7
		C157,65.5,151.9,60.4,145.6,60.4z M132,49.5c0-1.6,1.3-2.9,2.9-2.9c1.6,0,2.9,1.3,2.9,2.9v19.9c0,1.6-1.3,2.9-2.9,2.9
		c-1.6,0-2.9-1.3-2.9-2.9V49.5z M72.5,49.5c0-1.6,1.3-2.9,2.9-2.9c1.6,0,2.9,1.3,2.9,2.9v19.9c0,1.6-1.3,2.9-2.9,2.9
		c-1.6,0-2.9-1.3-2.9-2.9V49.5z M153,144.3c0,4.1-3.3,7.4-7.4,7.4H64.9c-4.1,0-7.4-3.3-7.4-7.4V71.7c0-4.1,3.3-7.4,7.4-7.4h1.3v3.9
		c0,5.1,4.1,9.2,9.2,9.2c5.1,0,9.2-4.1,9.2-9.2v-3.9h41.4v3.9c0,5.1,4.1,9.2,9.2,9.2c5.1,0,9.2-4.1,9.2-9.2v-3.9h1.3
		c4.1,0,7.4,3.3,7.4,7.4V144.3z"/>
	<path id="XMLID_10725_" class="st5" d="M147.1,89.3H63.7c-1.1,0-2,0.9-2,2v49.3c0,3.8,3.1,6.9,6.9,6.9h73.6c3.8,0,6.9-3.1,6.9-6.9
		V91.3C149.1,90.2,148.2,89.3,147.1,89.3z M145.1,140.6c0,1.6-1.3,2.9-2.9,2.9H68.6c-1.6,0-2.9-1.3-2.9-2.9V93.3h79.4V140.6z"/>
</g>
</svg>
