<?xml version="1.0" encoding="utf-8"?>
<!-- Generator: Adobe Illustrator 23.0.3, SVG Export Plug-In . SVG Version: 6.00 Build 0)  -->
<svg version="1.1" id="Layer_1" xmlns="http://www.w3.org/2000/svg" xmlns:xlink="http://www.w3.org/1999/xlink" x="0px" y="0px"
	 viewBox="0 0 1388.2 284.8" style="enable-background:new 0 0 1388.2 284.8;" xml:space="preserve">
<style type="text/css">
	.st0{fill:#E2E2E2;stroke:#E2E2E2;stroke-width:0.5;stroke-miterlimit:10;}
	.st1{fill:none;}
	.st2{fill:#303030;}
	.st3{font-family:'OpenSans-Semibold';}
	.st4{font-size:26px;}
	.st5{fill:#1F325F;stroke:#E2E2E2;stroke-width:0.75;stroke-miterlimit:10;}
	.st6{fill:#1F325F;stroke:#E2E2E2;stroke-width:1.5;stroke-miterlimit:10;}
	.st7{fill:#1F325F;}
	.st8{fill:none;stroke:#1F325F;stroke-width:4;stroke-miterlimit:10;}
	.st9{fill:none;stroke:#1F325F;stroke-width:4;stroke-miterlimit:10;stroke-dasharray:11.1558,11.1558;}
	.st10{fill:none;stroke:#1F325F;stroke-width:4;stroke-miterlimit:10;stroke-dasharray:10.8322,10.8322;}
	.st11{fill:none;stroke:#1F325F;stroke-width:4;stroke-miterlimit:10;stroke-dasharray:10.7962,10.7962;}
	.st12{fill:#1F325F;stroke:#E2E2E2;stroke-width:0.4508;stroke-miterlimit:10;}
</style>
<rect x="-54.7" y="-47.5" class="st0" width="1465.8" height="378.2"/>
<rect x="849.1" y="212.5" class="st1" width="278" height="61.8"/>
<text id="Duis_aute_irure_dolor_in_x0D_reprehenderit_in_voluptate._25_" transform="matrix(1 0 0 1 911.7173 234.7843)" class="st2 st3 st4">Distribusjon</text>
<rect x="1147.4" y="212.5" class="st1" width="278" height="61.8"/>
<text id="Duis_aute_irure_dolor_in_x0D_reprehenderit_in_voluptate._23_" transform="matrix(1 0 0 1 1217.3219 234.7843)" class="st2 st3 st4">Oppfølging</text>
<rect x="548.6" y="212.5" class="st1" width="278" height="61.8"/>
<text id="Duis_aute_irure_dolor_in_x0D_reprehenderit_in_voluptate._22_" transform="matrix(1 0 0 1 616.0938 234.7843)" class="st2 st3 st4">Produksjon</text>
<rect x="257.4" y="212.5" class="st1" width="278" height="61.8"/>
<text id="Duis_aute_irure_dolor_in_x0D_reprehenderit_in_voluptate._5_" transform="matrix(1 0 0 1 340.8414 234.7843)" class="st2 st3 st4">Utvikling</text>
<rect x="-32.4" y="212.5" class="st1" width="278" height="61.8"/>
<text id="Duis_aute_irure_dolor_in_x0D_reprehenderit_in_voluptate._3_" transform="matrix(1 0 0 1 34.5236 234.7843)" class="st2 st3 st4">Planlegging</text>
<g id="XMLID_1_">
	<path id="XMLID_11_" class="st5" d="M689.4,118.6c-0.6-0.1-1.3,0-1.8,0.4c-0.5,0.4-0.9,0.9-1,1.6l-2.1,10.8
		c-0.3,1.3,0.6,2.6,1.9,2.9l4.2,0.8c0.2,2.3,0.7,4.5,1.4,6.7l-3.5,2.4c-0.5,0.4-0.9,0.9-1,1.6c-0.1,0.6,0,1.3,0.4,1.8l6.2,9.1
		c0.4,0.5,0.9,0.9,1.6,1c0.6,0.1,1.3,0,1.8-0.4l3.5-2.4c1.8,1.5,3.7,2.7,5.7,3.8l-0.8,4.2c-0.3,1.3,0.6,2.6,1.9,2.9l10.8,2.1
		c0.2,0,0.3,0,0.5,0c1.2,0,2.2-0.8,2.4-2l0.8-4.2c2.3-0.2,4.5-0.7,6.7-1.4l2.4,3.5c0.4,0.5,0.9,0.9,1.6,1c0.6,0.1,1.3,0,1.8-0.4
		l9.1-6.2c1.1-0.8,1.4-2.3,0.6-3.4l-2.4-3.5c1.5-1.8,2.7-3.7,3.8-5.7l4.2,0.8c1.3,0.3,2.6-0.6,2.9-1.9l2.1-10.8
		c0.1-0.6,0-1.3-0.4-1.8c-0.4-0.5-0.9-0.9-1.6-1l-4.2-0.8c-0.2-2.3-0.7-4.5-1.4-6.7l3.5-2.4c1.1-0.8,1.4-2.3,0.6-3.4l-6.2-9.1
		c-0.4-0.5-0.9-0.9-1.6-1c-0.6-0.1-1.3,0-1.8,0.4l-3.5,2.4c-1.8-1.5-3.7-2.7-5.7-3.8l0.8-4.2c0.3-1.3-0.6-2.6-1.9-2.9l-10.8-2.1
		c-0.6-0.1-1.3,0-1.8,0.4c-0.5,0.4-0.9,0.9-1,1.6l-0.8,4.2c-2.3,0.2-4.5,0.7-6.7,1.4l-2.4-3.5c-0.4-0.5-0.9-0.9-1.6-1
		c-0.6-0.1-1.3,0-1.8,0.4l-9.1,6.2c-0.5,0.4-0.9,0.9-1,1.6c-0.1,0.6,0,1.3,0.4,1.8l2.4,3.5c-1.5,1.8-2.7,3.7-3.8,5.7L689.4,118.6z
		 M697.2,123.1c1.2-2.8,2.8-5.3,4.9-7.5c0.8-0.8,0.9-2.1,0.3-3.1l-2.1-3.1l5.1-3.4l2.1,3.1c0.7,1,1.9,1.3,3,0.9
		c2.8-1.2,5.8-1.8,8.8-1.8c1.2,0,2.1-0.9,2.4-2l0.7-3.7l6,1.1l-0.7,3.7c-0.2,1.1,0.4,2.3,1.5,2.7c2.8,1.2,5.3,2.8,7.5,4.9
		c0.8,0.8,2.1,0.9,3.1,0.3l3.1-2.1l3.4,5.1l-3.1,2.1c-1,0.7-1.3,1.9-0.9,3c1.2,2.8,1.8,5.8,1.8,8.8c0,1.2,0.9,2.1,2,2.4l3.7,0.7
		l-1.1,6l-3.7-0.7c-1.1-0.2-2.3,0.4-2.7,1.5c-1.2,2.8-2.8,5.3-4.9,7.5c-0.8,0.8-0.9,2.1-0.3,3.1l2.1,3.1l-5.1,3.4l-2.1-3.1
		c-0.7-1-1.9-1.3-3-0.9c-2.8,1.2-5.8,1.8-8.8,1.8c-1.2,0-2.1,0.8-2.4,2l-0.7,3.7l-6-1.1l0.7-3.7c0.2-1.1-0.4-2.3-1.5-2.7
		c-2.8-1.2-5.3-2.8-7.5-4.9c-0.8-0.8-2.1-0.9-3.1-0.3l-3.1,2.1l-3.4-5.1l3.1-2.1c1-0.7,1.3-1.9,0.9-3c-1.2-2.8-1.8-5.8-1.8-8.8
		c0-1.2-0.8-2.1-2-2.4l-3.7-0.7l1.1-6l3.7,0.7C695.6,124.8,696.8,124.1,697.2,123.1z"/>
	<path id="XMLID_8_" class="st5" d="M716.4,149.7L716.4,149.7c1.1,0.2,2.2,0.3,3.3,0.3c8.3,0,15.7-5.9,17.3-14.3
		c1.8-9.5-4.5-18.7-14-20.6c-4.6-0.9-9.3,0.1-13.2,2.7c-3.9,2.6-6.5,6.6-7.4,11.2c-0.9,4.6,0.1,9.3,2.7,13.2
		C707.8,146.2,711.8,148.8,716.4,149.7z M707.2,130.1c0.6-3.3,2.5-6.2,5.3-8.1c2.1-1.4,4.6-2.2,7.1-2.2c0.8,0,1.6,0.1,2.4,0.2
		c6.9,1.3,11.4,8,10.1,14.8c-0.6,3.3-2.5,6.2-5.3,8.1c-2.8,1.9-6.2,2.6-9.5,2h0c-3.3-0.6-6.2-2.5-8.1-5.3
		C707.3,136.8,706.6,133.4,707.2,130.1z"/>
	<path id="XMLID_5_" class="st5" d="M624.3,99.8c0.2,1.3,1.4,2.3,2.8,2.1l4.2-0.6c0.9,2.1,2.1,4.1,3.5,5.9l-2.5,3.4
		c-0.4,0.5-0.6,1.2-0.5,1.8c0.1,0.6,0.4,1.2,1,1.6l8.8,6.6c1.1,0.8,2.6,0.6,3.4-0.5l2.5-3.4c2.1,0.8,4.4,1.4,6.6,1.7l0.6,4.2
		c0.1,0.6,0.4,1.2,1,1.6c0.4,0.3,0.9,0.5,1.5,0.5c0.1,0,0.2,0,0.3,0l10.9-1.6c1.3-0.2,2.3-1.4,2.1-2.8l-0.6-4.2
		c2.1-0.9,4.1-2.1,5.9-3.5l3.4,2.5c1.1,0.8,2.6,0.6,3.4-0.5l6.6-8.8c0.8-1.1,0.6-2.6-0.5-3.4l-3.4-2.5c0.8-2.1,1.4-4.4,1.7-6.6
		l4.2-0.6c0.6-0.1,1.2-0.4,1.6-1c0.4-0.5,0.6-1.2,0.5-1.8L691.7,79c-0.2-1.3-1.4-2.3-2.8-2.1l-4.2,0.6c-0.9-2.1-2.1-4.1-3.5-5.9
		l2.5-3.4c0.4-0.5,0.6-1.2,0.5-1.8c-0.1-0.6-0.4-1.2-1-1.6l-8.8-6.6c-0.5-0.4-1.2-0.6-1.8-0.5c-0.6,0.1-1.2,0.4-1.6,1l-2.5,3.4
		c-2.1-0.8-4.4-1.4-6.6-1.7l-0.6-4.2c-0.2-1.3-1.4-2.3-2.8-2.1l-10.9,1.6c-0.6,0.1-1.2,0.4-1.6,1c-0.4,0.5-0.6,1.2-0.5,1.8l0.6,4.2
		c-2.1,0.9-4.1,2.1-5.9,3.5l-3.4-2.5c-0.5-0.4-1.2-0.6-1.8-0.5c-0.6,0.1-1.2,0.4-1.6,1l-6.6,8.8c-0.4,0.5-0.6,1.2-0.5,1.8
		c0.1,0.6,0.4,1.2,1,1.6l3.4,2.5c-0.8,2.1-1.4,4.4-1.7,6.6l-4.2,0.6c-0.6,0.1-1.2,0.4-1.6,1c-0.4,0.5-0.6,1.2-0.5,1.8L624.3,99.8z
		 M638.8,71.3c0.9,0.7,2.2,0.6,3.1-0.1c2.3-2,4.9-3.6,7.7-4.6c1.1-0.4,1.8-1.5,1.6-2.6l-0.5-3.7l6.1-0.9l0.5,3.7
		c0.2,1.1,1.1,2,2.3,2.1c3,0.2,6,0.9,8.7,2.2c1.1,0.5,2.3,0.2,3-0.7l2.2-3l4.9,3.7l-2.2,3c-0.7,0.9-0.6,2.2,0.1,3.1
		c2,2.3,3.6,4.9,4.6,7.7c0.4,1.1,1.5,1.7,2.6,1.6l3.7-0.5l0.9,6l-3.7,0.5c-1.1,0.2-2,1.1-2.1,2.3c-0.2,3-0.9,6-2.2,8.7
		c-0.5,1-0.2,2.3,0.7,3l3,2.2l-3.7,4.9l-3-2.2c-0.9-0.7-2.2-0.6-3.1,0.1c-2.3,2-4.9,3.6-7.7,4.6c-1.1,0.4-1.8,1.5-1.6,2.6l0.5,3.7
		l-6,0.9l-0.5-3.7c-0.2-1.1-1.1-2-2.3-2.1c-3-0.2-6-0.9-8.7-2.2c-0.3-0.2-0.7-0.2-1-0.2c-0.8,0-1.5,0.3-2,1l-2.2,3l-4.9-3.7l2.2-3
		c0.7-0.9,0.6-2.2-0.1-3.1c-2-2.3-3.6-4.9-4.6-7.7c-0.4-1.1-1.5-1.8-2.6-1.6l-3.7,0.5l-0.9-6l3.7-0.5c1.1-0.2,2-1.1,2.1-2.3
		c0.2-3,0.9-6,2.2-8.7c0.5-1,0.2-2.3-0.8-3l-3-2.2l3.7-4.9L638.8,71.3z"/>
	<path id="XMLID_2_" class="st5" d="M658,107c0.8,0,1.7-0.1,2.5-0.2c9.6-1.4,16.3-10.3,14.9-19.9c-1.4-9.6-10.3-16.3-19.9-14.9
		c-9.6,1.4-16.3,10.3-14.9,19.9C641.9,100.7,649.4,107,658,107z M670.6,87.6c1,6.9-3.8,13.4-10.8,14.4c-6.9,1-13.4-3.8-14.4-10.8
		c-1-6.9,3.8-13.4,10.8-14.4c0.6-0.1,1.2-0.1,1.8-0.1C664.2,76.7,669.7,81.3,670.6,87.6z"/>
</g>
<g>
	<path class="st6" d="M1052.9,81.7c-0.5-0.8-1.5-1.3-2.4-1.3h-32.7V61.1H916.5v77.7h11.7c1.4,6.8,7.3,11.9,14.5,11.9
		c7.1,0,13.1-5.1,14.5-11.9h11.3c0,0,0,0,0,0c2.9-2.6,1.2-5.9-1.4-5.9h-9.9c-1.4-6.8-7.3-11.9-14.5-11.9c-7.1,0-13.1,5.1-14.5,11.9
		h-5.8V67h89.4v16.3v49.6l-35.7,0c0,0,0,0,0,0c-2.9,2.6-1.2,5.9,1.4,5.9h37.2h6.1c1.4,6.8,7.3,11.9,14.5,11.9s13.1-5.1,14.5-11.9
		h22.8v-26.9c0-0.6-0.2-1.2-0.5-1.6L1052.9,81.7z M937.5,128.5c8.8-5.2,17.9,3.9,12.6,12.7c-0.5,0.9-1.2,1.6-2.1,2.1
		c-8.7,5.2-17.9-3.9-12.6-12.7C935.9,129.7,936.6,129,937.5,128.5z M1040.6,143.3c-8.8,5.2-17.9-3.9-12.6-12.7
		c0.5-0.9,1.2-1.6,2.1-2.1c8.8-5.3,17.9,3.9,12.6,12.7C1042.2,142,1041.5,142.7,1040.6,143.3z M1066.8,132.9h-16.9
		c-1.4-6.8-7.3-11.9-14.5-11.9s-13.1,5.1-14.5,11.9h-3.2V86.2h31.2l17.9,26.6V132.9z"/>
	<path class="st6" d="M932.6,94.6h9.9c2.9-2.6,1.1-5.9-1.4-5.9l-9.9,0c0,0,0,0,0,0C928.3,91.3,930.1,94.6,932.6,94.6z"/>
	<path class="st6" d="M1001.6,88.7l-51.9,0c-2.9,2.6-1.1,5.9,1.4,5.9h51.9C1006,92,1004.2,88.7,1001.6,88.7z"/>
	<path class="st6" d="M1001.6,105.4l-9.9,0c0,0,0,0,0,0c-2.9,2.6-1.2,5.9,1.4,5.9l9.9,0C1006,108.6,1004.2,105.4,1001.6,105.4z"/>
	<path class="st6" d="M932.6,111.2l51.9,0c2.9-2.6,1.1-5.9-1.4-5.9l-51.9,0c0,0,0,0,0,0C928.3,107.9,930,111.2,932.6,111.2z"/>
	<path class="st6" d="M1044.8,91.3H1023V113l32.5,0c1.1,0,2.1-0.6,2.6-1.6c0.5-1,0.4-2.1-0.2-3l-10.7-15.9
		C1046.7,91.7,1045.8,91.3,1044.8,91.3z M1028.9,107.1v-10h14.4l6.7,10H1028.9z"/>
</g>
<g id="XMLID_10562_">
	<path id="XMLID_10564_" class="st7" d="M1330.5,63.8c0-2.5-2-4.5-4.5-4.5h-79.3c-2.5,0-4.5,2-4.5,4.5c0,2.4,1.9,4.4,4.4,4.5
		c-0.2,0.6-0.2,1.3-0.2,2v41.8c0,0.7,0.1,1.3,0.2,2c-2.4,0.1-4.4,2.1-4.4,4.5c0,2.5,2,4.5,4.5,4.5h35.6c-0.1,0.3-0.1,0.6-0.1,0.9
		v10.7c-0.2,0.1-0.4,0.3-0.6,0.5l-15.3,15.9c-0.7,0.7-1,1.8-0.8,3c0.2,1,0.7,2,1.5,2.8c0.8,0.8,1.8,1.3,2.9,1.4
		c1.1,0.1,2.2-0.2,2.9-0.9l9.4-9.8v8c0,2.6,2,4.7,4.5,4.7c2.5,0,4.5-2.1,4.5-4.7v-8.1l10.8,10.4c0.8,0.7,1.9,1.1,3,0.9
		c1-0.2,2.1-0.7,2.8-1.5c0.8-0.8,1.3-1.9,1.4-2.9c0.1-1.2-0.2-2.2-1-3l0,0l-16.6-16c-0.1-0.1-0.3-0.2-0.4-0.3V124
		c0-0.3,0-0.6-0.1-0.9h34.9c2.5,0,4.5-2,4.5-4.5c0-1.8-1.1-3.4-2.7-4.1c0.2-0.7,0.3-1.5,0.3-2.3V70.3c0-0.8-0.1-1.6-0.3-2.3
		C1329.4,67.3,1330.5,65.7,1330.5,63.8z M1306.5,153.2c0.3,0.3,0.3,0.6,0.2,0.9c-0.1,0.5-0.3,1-0.7,1.4c-0.4,0.4-0.9,0.7-1.4,0.8
		c-0.2,0-0.6,0-0.9-0.2l-12.9-12.5c-0.4-0.4-0.9-0.5-1.4-0.3c-0.5,0.2-0.8,0.7-0.8,1.2v11.1c0,1.2-0.9,2.2-2,2.2c-1.1,0-2-1-2-2.2
		v-11.2c0-0.5-0.3-1-0.8-1.2c-0.2-0.1-0.3-0.1-0.5-0.1c-0.3,0-0.7,0.1-0.9,0.4l-11.6,12c-0.2,0.2-0.6,0.2-0.8,0.2
		c-0.5-0.1-1-0.3-1.4-0.7c-0.4-0.4-0.7-0.9-0.8-1.4c0-0.2-0.1-0.6,0.2-0.8l15.3-15.9c0.1-0.1,0.2-0.1,0.3-0.2c0.6-0.1,1-0.6,1-1.2
		V124c0-0.3,0.1-0.6,0.2-0.9h3.6c0.1,0.3,0.2,0.6,0.2,0.9v11.9c0,0.6,0.4,1,0.9,1.2c0.1,0,0.2,0.1,0.3,0.2L1306.5,153.2z
		 M1328,118.6c0,1.1-0.9,2-2,2h-79.3c-1.1,0-2-0.9-2-2c0-1.1,0.9-2,2-2h79.3C1327.1,116.6,1328,117.5,1328,118.6z M1250.1,112.1
		V70.3c0-0.7,0.2-1.4,0.5-2h73.3c0.3,0.6,0.5,1.3,0.5,2v41.8c0,0.7-0.2,1.4-0.5,2h-73.3C1250.3,113.5,1250.1,112.8,1250.1,112.1z
		 M1326,65.8h-79.3c-1.1,0-2-0.9-2-2c0-1.1,0.9-2,2-2h79.3c1.1,0,2,0.9,2,2C1328,64.9,1327.1,65.8,1326,65.8z"/>
	<path id="XMLID_10563_" class="st7" d="M1314,75.8c-0.8-0.6-2-0.5-2.7,0.4l-11.5,15.3l-15.4-7.7c-0.9-0.4-1.9-0.2-2.4,0.6l-10.6,16
		h-11.5c-1.1,0-1.9,0.9-1.9,1.9c0,1.1,0.9,1.9,1.9,1.9h12.5c0.6,0,1.2-0.3,1.6-0.8l10.3-15.4l15.3,7.7c0.8,0.4,1.8,0.2,2.4-0.6
		l12.5-16.6C1315,77.7,1314.9,76.5,1314,75.8z"/>
</g>
<g id="XMLID_10724_">
	<path id="XMLID_10736_" class="st7" d="M85.6,112h7.8v24.5c0,0.7,0.6,1.3,1.3,1.3h6.8c0.7,0,1.3-0.6,1.3-1.3V99.1
		c0-0.7-0.6-1.3-1.3-1.3h-5.8c-0.7,0-1.3,0.6-1.3,1.3c0,0.1,0,0.4-0.2,1.1c-0.3,0.9-0.6,1.6-1.1,2.1c-0.7,0.8-1.7,1.3-2.9,1.6
		c-0.8,0.2-2.4,0.3-4.6,0.4c-0.7,0-1.3,0.6-1.3,1.3v5C84.3,111.4,84.9,112,85.6,112z M87,106.9c1.7-0.1,3-0.2,3.8-0.4
		c1.7-0.4,3.2-1.2,4.3-2.3c0.8-0.8,1.4-1.9,1.8-3.2c0.1-0.2,0.1-0.4,0.1-0.5h3.4v34.7h-4.2v-24.5c0-0.7-0.6-1.3-1.3-1.3H87V106.9z"
		/>
	<path id="XMLID_10733_" class="st7" d="M110.9,134.9c2.5,2.1,5.7,3.2,9.6,3.2c4.8,0,8.5-1.5,11-4.6c2.4-2.9,3.6-6.3,3.6-10.1
		c0-4.3-1.3-7.7-3.9-10c-2.5-2.3-5.5-3.5-9-3.5c-1.7,0-3.1,0.2-4.4,0.7c-0.2,0.1-0.4,0.2-0.6,0.3l0.4-4.4h12.2
		c0.7,0,1.3-0.6,1.3-1.3V99c0-0.7-0.6-1.3-1.3-1.3h-20c-0.7,0-1.3,0.5-1.3,1.2l-1.4,20.6c0,0.4,0.1,0.7,0.3,1
		c0.2,0.3,0.6,0.4,0.9,0.4l7.3,0.3c0.5,0,1-0.3,1.2-0.7c0.4-0.8,1-1.3,1.8-1.6c0.5-0.2,1.1-0.3,1.9-0.3c1.4,0,2.4,0.4,3,1.4
		c0.7,1.1,1.1,2.4,1.1,4.1c0,1.6-0.4,3-1.2,4c-0.7,0.9-1.7,1.4-3.1,1.4c-1.2,0-2.1-0.3-2.6-0.9c-0.6-0.7-1.1-1.7-1.3-3
		c-0.1-0.6-0.7-1.1-1.3-1.1H108c-0.4,0-0.7,0.2-1,0.4c-0.3,0.3-0.4,0.6-0.4,1C106.9,129.7,108.3,132.8,110.9,134.9z M114.2,127.1
		c0.4,1.3,1,2.4,1.8,3.3c1.1,1.1,2.6,1.7,4.6,1.7c2.2,0,4-0.8,5.2-2.5c1.1-1.5,1.7-3.4,1.7-5.6c0-2.2-0.5-4-1.6-5.6
		c-1.2-1.7-2.9-2.6-5.3-2.6c-1,0-1.9,0.1-2.8,0.4c-1.2,0.4-2.2,1.2-2.9,2.2l-5.2-0.2l1.2-18h17.4v3.5h-12.1c-0.7,0-1.3,0.5-1.3,1.2
		l-0.7,8.2c0,0.5,0.2,1,0.7,1.3c0.4,0.3,1,0.2,1.4,0c1.3-0.8,2-1.2,2.4-1.3c0.9-0.3,2.1-0.5,3.4-0.5c2.8,0,5.1,0.9,7.2,2.8
		c2,1.8,3,4.5,3,8.1c0,3.2-1,5.9-3,8.4c-2,2.4-4.9,3.6-8.9,3.6c-3.2,0-5.8-0.8-7.9-2.5c-1.7-1.4-2.7-3.3-3.1-5.7H114.2z"/>
	<path id="XMLID_10728_" class="st7" d="M150,60.4h-3.3c-0.3,0-0.6,0.1-0.8,0.2v-11c0-3.6-3-6.6-6.6-6.6c-3.6,0-6.6,3-6.6,6.6v10.9
		c-0.1,0-0.2,0-0.4,0H87c-0.2,0-0.3,0-0.5,0.1V49.5c0-3.6-3-6.6-6.6-6.6c-3.6,0-6.6,3-6.6,6.6v10.9c-0.2-0.1-0.4-0.1-0.7-0.1h-3.3
		c-6.3,0-11.4,5.1-11.4,11.4v72.6c0,6.3,5.1,11.4,11.4,11.4H150c6.3,0,11.4-5.1,11.4-11.4V71.7C161.4,65.5,156.3,60.4,150,60.4z
		 M136.4,49.5c0-1.6,1.3-2.9,2.9-2.9c1.6,0,2.9,1.3,2.9,2.9v19.9c0,1.6-1.3,2.9-2.9,2.9c-1.6,0-2.9-1.3-2.9-2.9V49.5z M77,49.5
		c0-1.6,1.3-2.9,2.9-2.9c1.6,0,2.9,1.3,2.9,2.9v19.9c0,1.6-1.3,2.9-2.9,2.9c-1.6,0-2.9-1.3-2.9-2.9V49.5z M157.4,144.3
		c0,4.1-3.3,7.4-7.4,7.4H69.3c-4.1,0-7.4-3.3-7.4-7.4V71.7c0-4.1,3.3-7.4,7.4-7.4h1.3v3.9c0,5.1,4.1,9.2,9.2,9.2
		c5.1,0,9.2-4.1,9.2-9.2v-3.9h41.4v3.9c0,5.1,4.1,9.2,9.2,9.2c5.1,0,9.2-4.1,9.2-9.2v-3.9h1.3c4.1,0,7.4,3.3,7.4,7.4V144.3z"/>
	<path id="XMLID_10725_" class="st7" d="M151.6,89.3H68.1c-1.1,0-2,0.9-2,2v49.3c0,3.8,3.1,6.9,6.9,6.9h73.6c3.8,0,6.9-3.1,6.9-6.9
		V91.3C153.6,90.2,152.7,89.3,151.6,89.3z M149.6,140.6c0,1.6-1.3,2.9-2.9,2.9H73c-1.6,0-2.9-1.3-2.9-2.9V93.3h79.4V140.6z"/>
</g>
<g>
	<g>
		<line class="st8" x1="195.8" y1="114.9" x2="201.3" y2="114.9"/>
		<line class="st9" x1="212.5" y1="114.9" x2="318.5" y2="114.9"/>
		<line class="st8" x1="324" y1="114.9" x2="329.5" y2="114.9"/>
	</g>
</g>
<g>
	<g>
		<line class="st8" x1="474.3" y1="114.9" x2="479.8" y2="114.9"/>
		<line class="st9" x1="491" y1="114.9" x2="597" y2="114.9"/>
		<line class="st8" x1="602.5" y1="114.9" x2="608" y2="114.9"/>
	</g>
</g>
<g>
	<g>
		<line class="st8" x1="769.5" y1="114.9" x2="775" y2="114.9"/>
		<line class="st10" x1="785.8" y1="114.9" x2="888.7" y2="114.9"/>
		<line class="st8" x1="894.1" y1="114.9" x2="899.6" y2="114.9"/>
	</g>
</g>
<g>
	<g>
		<line class="st8" x1="1089.9" y1="114.9" x2="1095.4" y2="114.9"/>
		<line class="st11" x1="1106.2" y1="114.9" x2="1208.8" y2="114.9"/>
		<line class="st8" x1="1214.1" y1="114.9" x2="1219.6" y2="114.9"/>
	</g>
</g>
<g id="XMLID_11209_">
	<path id="XMLID_11216_" class="st12" d="M466.4,141.3c0,0,0-0.1,0-0.1c0-0.1,0-0.1-0.1-0.2c0,0,0-0.1,0-0.1c0-0.1-0.1-0.2-0.1-0.2
		c0,0,0-0.1,0-0.1c-0.1-0.1-0.1-0.2-0.2-0.3c0,0,0,0-0.1-0.1c-0.1-0.1-0.1-0.1-0.2-0.2c0,0-0.1,0-0.1-0.1c0,0-0.1-0.1-0.1-0.1
		l-15.4-7.6V63.5c0-1.1-0.9-2-2-2h-89.5c-1.1,0-2,0.9-2,2v68.7l-14.9,7.6c0,0-0.1,0.1-0.1,0.1c0,0-0.1,0-0.1,0.1
		c-0.1,0-0.1,0.1-0.2,0.2c0,0-0.1,0-0.1,0.1c-0.1,0.1-0.2,0.2-0.2,0.3c0,0,0,0,0,0c-0.1,0.1-0.1,0.2-0.2,0.3c0,0,0,0.1,0,0.1
		c0,0.1-0.1,0.2-0.1,0.2c0,0,0,0.1,0,0.1c0,0.1,0,0.2,0,0.2c0,0,0,0.1,0,0.1v5.5c0,1.1,0.9,2,2,2h122c1.1,0,2-0.9,2-2v-5.5
		c0,0,0-0.1,0-0.1C466.4,141.5,466.4,141.4,466.4,141.3z M350.9,139.6l8-4.1h88.5l8.3,4.1H350.9z M360.5,65.6h85.4v65.9h-85.4V65.6z
		 M462.4,145.1H344.4v-1.5h117.9V145.1z"/>
	<path id="XMLID_11213_" class="st12" d="M437.1,69.9h-68c-1.1,0-2,0.9-2,2v45.8c0,1.1,0.9,2,2,2h68c1.1,0,2-0.9,2-2V71.9
		C439.2,70.8,438.2,69.9,437.1,69.9z M435.1,115.7h-63.9V74h63.9V115.7z"/>
	<path id="XMLID_11210_" class="st12" d="M404,120.9c-2.4,0-4.4,2-4.4,4.4s2,4.4,4.4,4.4s4.4-2,4.4-4.4S406.4,120.9,404,120.9z
		 M404,127.2c-1.1,0-1.9-0.9-1.9-1.9c0-1.1,0.9-1.9,1.9-1.9s1.9,0.9,1.9,1.9C405.9,126.4,405,127.2,404,127.2z"/>
</g>
</svg>
